<?xml version="1.0" encoding="UTF-8" standalone="no"?>
<!-- Created with Inkscape (http://www.inkscape.org/) -->

<svg
   version="1.1"
   id="svg1"
   width="832"
   height="1248"
   viewBox="0 0 832 1248"
   sodipodi:docname="logo3.svg"
   inkscape:version="1.4.2 (f4327f4, 2025-05-13)"
   xmlns:inkscape="http://www.inkscape.org/namespaces/inkscape"
   xmlns:sodipodi="http://sodipodi.sourceforge.net/DTD/sodipodi-0.dtd"
   xmlns:xlink="http://www.w3.org/1999/xlink"
   xmlns="http://www.w3.org/2000/svg"
   xmlns:svg="http://www.w3.org/2000/svg">
  <defs
     id="defs1" />
  <sodipodi:namedview
     id="namedview1"
     pagecolor="#ffffff"
     bordercolor="#000000"
     borderopacity="0.25"
     inkscape:showpageshadow="2"
     inkscape:pageopacity="0.0"
     inkscape:pagecheckerboard="0"
     inkscape:deskcolor="#d1d1d1"
     showgrid="false"
     inkscape:zoom="0.56733469"
     inkscape:cx="364.86399"
     inkscape:cy="749.9982"
     inkscape:window-width="1920"
     inkscape:window-height="1111"
     inkscape:window-x="-9"
     inkscape:window-y="-9"
     inkscape:window-maximized="1"
     inkscape:current-layer="g1" />
  <g
     inkscape:groupmode="layer"
     inkscape:label="Image"
     id="g1">
    <path
       id="path30"
       style="display:inline;fill:#000000;stroke:none"
       d="m 398.19141,24.052734 c 0.0978,0.108855 0.19611,0.21728 0.29492,0.324219 0.0341,-0.04848 0.0686,-0.09633 0.10351,-0.144531 -0.13816,-0.05537 -0.27136,-0.115814 -0.39843,-0.179688 z m 143.83398,14.63086 c -0.37648,0.300248 -0.75041,0.603106 -1.12109,0.910156 0.25372,-0.04575 0.50759,-0.08933 0.76172,-0.126953 0.11789,-0.262664 0.23814,-0.522333 0.35937,-0.783203 z M 342.07812,104.07227 c -0.046,0.0498 -0.17168,0.19787 -0.41992,0.5 0.16364,-0.16976 0.35668,-0.40432 0.41992,-0.48829 10e-5,-0.004 -8e-5,-0.008 0,-0.0117 z m -29.21484,37.36328 c -0.2495,0.26751 -0.49777,0.53459 -0.74609,0.80273 0.4438,-0.10602 0.88451,-0.21782 1.32422,-0.33594 -0.0972,-0.12179 -0.19283,-0.24543 -0.28711,-0.36914 -0.0976,-0.0316 -0.19484,-0.0636 -0.29102,-0.0976 z m 140.94336,16.68359 c -0.16757,4.8e-4 -0.45383,0.11067 -0.68945,0.19922 0.1671,0.0294 0.34118,0.0475 0.52148,0.0527 0.10169,-0.0354 0.28319,3e-5 0.30469,-0.10547 0.0217,-0.10614 -0.0362,-0.14676 -0.13672,-0.14648 z m 15.50391,18.05078 -0.002,0.002 c -0.0534,0.0217 -0.29531,0.20718 -0.38671,0.2832 -0.0851,0.0708 -0.1709,0.14059 -0.25586,0.21094 0.0402,-0.0174 0.0808,-0.0361 0.12109,-0.0547 0.17082,-0.13783 0.37128,-0.24508 0.51367,-0.41211 0.008,-0.009 0.0112,-0.0169 0.0137,-0.0215 l 0.002,-0.002 v -0.002 -0.002 -0.002 h -0.002 -0.002 z m 3.41015,7.37891 c -0.0243,0.0404 -0.0496,0.081 -0.0742,0.12109 0.0378,0.0194 0.076,0.0384 0.11329,0.0586 -0.0129,-0.0603 -0.0257,-0.11987 -0.0391,-0.17969 z m -94.8789,20.76562 c -0.0393,0.0411 -0.0659,0.0744 -0.0742,0.0918 -1.9e-4,4.8e-4 -0.002,0.003 -0.002,0.004 v 0.002 0.002 0.002 0.002 h 0.002 0.002 c 0.007,-0.002 0.0213,-0.007 0.0371,-0.0176 0.0138,-0.009 0.0272,-0.0165 0.041,-0.0254 -0.002,-0.0202 -0.004,-0.0402 -0.006,-0.0606 z m -5.08008,5.76953 c 0.058,0.20075 0.11736,0.40049 0.17773,0.60157 0.0961,-0.17046 0.19523,-0.33895 0.29883,-0.50586 -0.16074,-0.0269 -0.31945,-0.0581 -0.47656,-0.0957 z m 22.47266,26.25196 c -0.0456,0.12397 -0.0891,0.25195 -0.12891,0.38086 -0.006,0.12253 -0.0567,0.25088 -0.0176,0.36718 0.005,0.0154 0.0103,0.0278 0.0156,0.0352 l 0.002,0.002 0.002,0.002 0.002,0.002 h 0.002 l 0.002,0.002 h 0.002 l 0.002,0.002 h 0.002 0.002 0.002 l 0.002,-0.002 h 0.002 0.002 l 0.002,-0.002 c 0.0655,-0.0556 0.13107,-0.54646 0.10937,-0.73828 -0.002,-0.017 -0.004,-0.034 -0.006,-0.0508 z M 575.5,268.73242 414.54297,268.92773 c -159.74404,0.19335 -160.99124,0.20904 -165.71289,2.24024 C 239.21847,275.30277 232,286.54034 232,297.36719 c 0,5.14956 3.47737,13.66273 7.5,18.36328 5.77634,6.74835 11.41274,9.42301 21.13086,10.0293 l 8.36914,0.52148 -0.004,126.10937 -0.004,126.10938 -3.05469,7.5 c -1.68075,4.125 -4.76909,10.875 -6.86328,15 -2.09419,4.125 -5.2777,10.875 -7.07422,15 -1.79652,4.125 -5.28369,11.775 -7.75,17 -2.46632,5.225 -5.9538,12.875 -7.75,17 -1.7962,4.125 -5.52193,12.225 -8.2793,18 C 220.89204,683.3515 215,696.06016 215,696.52344 c 0,0.22266 -2.475,5.63239 -5.5,12.02148 -3.025,6.38909 -5.5,11.76901 -5.5,11.95508 0,0.18606 -1.96296,4.53581 -4.36328,9.66797 -2.40033,5.13217 -5.501,11.80703 -6.88867,14.83203 -11.21753,24.4531 -13.43481,29.20528 -20.99805,45 -8.86119,18.50531 -11.87415,24.98992 -19.04883,41 -8.98306,20.04542 -16.58524,36.69066 -22.15039,48.5 -2.59188,5.5 -5.42638,11.575 -6.29883,13.5 -2.23144,4.92352 -9.84756,21.04225 -17.7207,37.5 -3.68356,7.7 -7.510845,15.8 -8.503906,18 -0.993062,2.2 -3.37958,7.375 -5.304688,11.5 -1.925108,4.125 -5.179412,11.1 -7.230468,15.5 C 83.441125,979.9 80.070213,987.325 78,992 c -2.070212,4.675 -5.78879,12.775 -8.261719,18 -4.55699,9.6284 -8.196385,17.4288 -14.466797,31 -1.905912,4.125 -5.162733,11.1 -7.236328,15.5 -2.073596,4.4 -4.683044,10.025 -5.798828,12.5 -1.115784,2.475 -4.266024,9.225 -7.001953,15 -2.73593,5.775 -6.209103,13.2 -7.716797,16.5 -1.507694,3.3 -3.567672,7.8 -4.578125,10 -2.615611,5.6948 -6.783802,20.6191 -8.078125,28.9238 -2.340222,15.0156 1.924075,37.2149 10.386719,54.0762 12.240433,24.3883 37.688601,43.913 65.251953,50.0645 l 10,2.2324 313,0.088 313,0.088 11,-2.3672 c 23.01985,-4.9545 36.66922,-12.4657 51.74805,-28.4746 12.15732,-12.9072 18.24566,-24.6903 22.64062,-43.8145 5.33109,-23.1977 1.3377,-46.2418 -13.31445,-76.8164 -1.84502,-3.85 -4.71119,-9.925 -6.36914,-13.5 -1.65794,-3.575 -5.25058,-11.225 -7.98242,-17 -2.73184,-5.775 -6.10441,-12.975 -7.4961,-16 -8.65537,-18.8135 -13.83702,-30.0042 -19.21679,-41.5 -2.31649,-4.95 -5.46207,-11.7 -6.98829,-15 -1.52622,-3.3 -4.2451,-9.15 -6.04296,-13 -1.79785,-3.85 -4.7181,-10.15 -6.48829,-14 -3.40087,-7.39657 -7.77749,-16.72236 -15.37109,-32.74609 -2.54027,-5.361 -4.61914,-9.9408 -4.61914,-10.17969 0,-0.49671 -6.76265,-14.94014 -14.54883,-31.07422 -8.43707,-17.4828 -15.25244,-32.14143 -20.46094,-44 -2.65727,-6.05 -7.34364,-16.06726 -10.41211,-22.26172 C 669.50968,818.04322 667,812.69294 667,812.34961 c 0,-0.34332 -1.74477,-4.27411 -3.87695,-8.73633 -2.13219,-4.46221 -5.11073,-10.81328 -6.61914,-14.11328 -1.50841,-3.3 -4.4351,-9.6 -6.50391,-14 -2.06881,-4.4 -4.99154,-10.7 -6.49414,-14 -1.5026,-3.3 -4.67028,-10.05 -7.03906,-15 C 628.81059,730.50094 621,713.84704 621,713.52344 c 0,-0.17344 -3.375,-7.30969 -7.5,-15.85938 -4.125,-8.5497 -7.5,-15.81595 -7.5,-16.14648 0,-0.60505 -1.55613,-4.0042 -10.9043,-23.81836 C 592.29307,651.75883 590,646.7144 590,646.48828 590,645.71526 575.4879,615.00669 567.08594,598 c -2.03791,-4.125 -4.6968,-10.2 -5.91016,-13.5 l -2.20703,-6 0.26563,-126 0.26562,-126 9.5,-0.50195 c 10.57194,-0.55849 13.63641,-1.87985 20.14844,-8.68555 13.20705,-13.80262 9.09494,-37.69896 -7.88477,-45.82227 z M 415,281.5918 c 171.26569,0.0998 161.42428,-0.19967 166.19531,5.07226 5.15887,5.7005 3.73135,18.55925 -2.68554,24.19336 -4.30394,3.7789 -8.41169,4.58727 -18.94727,3.73242 -7.28424,-0.59104 -8.52336,-0.44088 -10.65234,1.28321 l -2.41016,1.95117 -0.0566,129.83789 c -0.0311,71.41101 0.28985,131.73231 0.71289,134.04883 0.42303,2.31652 2.08107,7.04152 3.68555,10.5 4.19956,9.05222 14.37627,31.11455 18.12304,39.28906 1.76464,3.85 4.25714,9.025 5.53907,11.5 1.28194,2.475 4.20714,8.775 6.5,14 4.46663,10.17861 7.13439,15.87517 18.63867,39.79688 4.04617,8.41349 7.35742,15.46237 7.35742,15.66406 0,0.2017 2.19476,5.01832 4.87695,10.70312 2.68219,5.68481 7.159,15.59032 9.94922,22.01172 2.79022,6.42141 7.61256,16.99641 10.7168,23.5 3.10423,6.5036 6.55611,13.84922 7.66992,16.32422 2.35012,5.22219 6.86498,14.94484 12.53906,27 2.20041,4.675 5.23713,11.2 6.74805,14.5 1.51092,3.3 5.56418,11.85 9.00586,19 3.44168,7.15 7.39734,15.475 8.79102,18.5 1.39367,3.025 5.04761,10.80285 8.11914,17.28516 3.07154,6.48232 5.58398,11.98104 5.58398,12.21875 0,0.23771 2.7,6.08615 6,12.99609 3.3,6.90994 6,12.73508 6,12.94531 0,0.21022 2.19236,5.03395 4.87109,10.71875 2.67873,5.68481 6.33359,13.71094 8.12305,17.83594 1.78946,4.125 6.39461,14.025 10.23438,22 3.83977,7.975 8.80433,18.325 11.03125,23 2.22691,4.675 5.81492,12.1 7.97461,16.5 2.15967,4.4 4.97575,10.475 6.25585,13.5 1.2801,3.025 4.84262,10.8345 7.91797,17.3535 3.07535,6.519 5.5918,12.0035 5.5918,12.1895 0,0.186 1.84066,4.3033 4.08984,9.1484 2.24918,4.845 4.90719,10.6086 5.90821,12.8086 1.00102,2.2 5.27019,11.2 9.48633,20 4.21613,8.8 8.57039,18.25 9.67578,21 1.10539,2.75 2.62772,6.4378 3.38281,8.1953 0.75508,1.7575 2.09924,8.4446 2.98633,14.8594 1.34729,9.7425 1.41822,13.1688 0.4375,20.8047 -2.20106,17.1376 -8.43059,32.1332 -18.55664,44.666 -13.19877,16.3358 -32.54714,26.1284 -55.2168,27.9473 -5.88158,0.4718 -143.44336,0.9201 -305.69336,0.9941 -162.25,0.074 -296.8,0.2757 -299,0.4473 -8.49117,0.6624 -27.056424,-1.3322 -35.123047,-3.7735 -27.546117,-8.3365 -47.950001,-28.1332 -56.316406,-54.6406 -3.052226,-9.6704 -4.440976,-26.0791 -3.125,-36.9023 1.245735,-10.2455 3.808891,-17.5839 12.261719,-35.0977 3.318146,-6.875 7.580338,-16.0827 9.470703,-20.4609 1.890365,-4.3781 3.815362,-8.4281 4.279297,-9 0.463934,-0.5718 2.069178,-3.9641 3.566406,-7.5391 2.325129,-5.5518 11.139494,-24.9563 22.71289,-50 1.652109,-3.575 6.278765,-13.25 10.28125,-21.5 4.002488,-8.25 8.724749,-18.15 10.494138,-22 1.76941,-3.85 4.77888,-10.375 6.6875,-14.5 1.90862,-4.125 3.84876,-8.4 4.31055,-9.5 1.07393,-2.5581 6.20152,-13.73718 11.00977,-24 2.06145,-4.4 8.24497,-17.675 13.74023,-29.5 17.56375,-37.79461 22.91808,-49.25964 28.02148,-60 2.74405,-5.775 7.34604,-15.675 10.22657,-22 2.88052,-6.325 6.75888,-14.78057 8.61914,-18.78906 1.86027,-4.00848 3.38281,-7.46685 3.38281,-7.68555 0,-0.21871 4.42309,-9.53813 9.83008,-20.71094 5.40698,-11.1728 10.53636,-21.88945 11.39648,-23.81445 0.86011,-1.925 3.13112,-6.875 5.04688,-11 5.78073,-12.44706 9.84985,-21.33212 11.2207,-24.5 0.71401,-1.65 2.64349,-5.925 4.28906,-9.5 3.01592,-6.55205 11.06061,-24.24892 15.22852,-33.5 4.59565,-10.20048 15.31949,-33.32597 20.17187,-43.5 2.75431,-5.775 6.80233,-14.325 8.99414,-19 2.19181,-4.675 4.46646,-9.38897 5.05469,-10.47656 0.16613,-0.30717 0.0161,-5.87575 0.16797,-6.17188 0.10483,-0.46498 1.59895,-3.39598 1.6875,-3.875 0.30073,-1.62679 0.24593,-44.99454 0.35938,-71.08203 0.2882,-19.36066 1.59251,-3.38926 1.60351,-58.68164 0.014,-70.28248 -0.26875,-129.35546 -0.6289,-131.27539 -0.36019,-1.91992 -1.39058,-3.86949 -2.28907,-4.33008 -0.8985,-0.4606 -5.77291,-1.0922 -10.83398,-1.4043 C 251.9649,312.69601 245.5,307.81831 245.5,296.5 c 0,-6.92153 2.61738,-11.4598 7.89258,-13.6875 2.52475,-1.06619 32.86084,-1.2957 161.60742,-1.2207 z m 59.13281,16.69336 c -1.90265,0.0118 -3.86391,0.2316 -5.85742,0.67773 -12.99895,2.90904 -21.0208,17.15787 -17.24805,30.63281 1.65638,5.91599 9.20821,13.7419 14.6543,15.18555 10.2767,2.72415 18.53346,0.82618 25.36719,-5.83008 5.05488,-4.92361 6.93945,-9.39055 6.93945,-16.45117 0,-14.17727 -10.53691,-24.29723 -23.85547,-24.21484 z m 54.39453,17.77343 c -1.33198,-0.019 -2.75329,0.51027 -3.65429,1.59571 -1.144,1.37819 -1.42893,23.45148 -1.71094,132.61914 -0.24426,94.55425 -0.0273,132.2071 0.7832,135.42578 1.01269,4.02178 10.61202,26.60431 19.04297,44.80078 1.78382,3.85 4.76553,10.28057 6.62695,14.28906 1.86141,4.00848 3.38477,7.47148 3.38477,7.69727 0,0.22578 3.375,7.417 7.5,15.98047 4.125,8.56346 7.5,15.78862 7.5,16.05468 0,0.26605 3.09577,6.89426 6.87891,14.73047 3.78314,7.83621 9.58454,20.09805 12.89257,27.24805 3.30803,7.15 7.41227,16.01941 9.1211,19.70898 1.70883,3.68956 3.10742,7.05968 3.10742,7.49024 0,0.43056 1.52439,3.93614 3.38672,7.79101 C 618.45782,792.68626 621.70527,799.52658 625,807 c 4.48594,10.17543 7.18741,16.15084 11.5293,25.5 1.788,3.85 4.7032,10.15 6.47656,14 1.77336,3.85 5.24828,11.05 7.72266,16 2.47439,4.95 9.88181,21.15 16.46093,36 6.57911,14.85 14.68561,32.85 18.01563,40 3.33002,7.15 6.62682,14.575 7.32617,16.5 0.69935,1.925 4.64112,10.475 8.75781,19 9.4516,19.57274 15.19438,31.6737 28.7168,60.5 6.31905,13.4706 23.99414,52.8374 23.99414,53.4414 0,0.3985 3.375,7.5074 7.5,15.7969 4.125,8.2895 7.5,15.4587 7.5,15.9316 0,0.4728 0.87679,2.4971 1.94922,4.4981 2.96823,5.538 5.40992,19.129 4.68359,26.0781 -0.92766,8.8754 -3.382,17.3283 -7.46484,25.709 -4.85201,9.9595 -15.82644,21.1879 -25.66797,26.2617 -13.49637,6.9579 -14.86315,7.1404 -55.5,7.4102 -99.51142,0.6607 -572.01838,0.5927 -575.5,-0.082 -18.619109,-3.6117 -29.868703,-8.9506 -40.119141,-19.039 -10.273448,-10.111 -15.699518,-22.1011 -16.972656,-37.5059 -1.272757,-15.4002 2.241562,-28.2375 15.585938,-56.9316 3.726254,-8.0125 11.735102,-25.8184 17.796875,-39.5684 6.061772,-13.75 15.719094,-34.675 21.460934,-46.5 5.74184,-11.825 12.81638,-26.9 15.72071,-33.5 2.90432,-6.6 5.62027,-12.45 6.03515,-13 0.41488,-0.55 3.24193,-6.625 6.28321,-13.5 10.32251,-23.33466 26.41163,-58.44486 33.45117,-73 3.85707,-7.975 10.60576,-21.925 14.99804,-31 4.39229,-9.075 8.31256,-17.54175 8.71094,-18.81445 0.39838,-1.2727 2.76222,-6.6727 5.25195,-12 2.48976,-5.3273 6.00049,-13.06055 7.80274,-17.18555 1.80225,-4.125 5.84751,-12.9 8.99023,-19.5 3.14272,-6.6 7.6444,-16.05 10.00196,-21 9.43917,-19.81879 16.93488,-36.33666 26.38476,-58.13477 10.72193,-24.73234 19.6787,-44.12973 34.10547,-73.86523 15.74529,-32.45313 15.78154,-32.54167 17.07422,-41.54102 0.90381,-6.29222 1.20891,-41.05756 1.19141,-135.70898 -0.0214,-116.1776 -0.16632,-127.46713 -1.66211,-129.75 -2.00997,-3.0676 -5.12918,-3.23241 -6.66992,-0.35352 -0.84592,1.58061 -1.18446,36.81596 -1.28516,133.75 C 295.50002,583.4909 295.5,583.50038 293.37695,589 c -1.86243,4.8245 -4.63322,10.94201 -18.57422,41 -1.6581,3.575 -6.06514,13.475 -9.79296,22 -3.72782,8.525 -11.4434,24.95651 -17.14454,36.51367 -5.70115,11.55717 -11.66646,23.93217 -13.25585,27.5 -1.58941,3.56784 -4.66366,10.08633 -6.83204,14.48633 -3.88519,7.88365 -6.64553,14.32236 -15.43554,36 -2.4532,6.05 -9.63778,21.575 -15.9668,34.5 -6.32902,12.925 -14.90164,31.15 -19.04883,40.5 -6.68418,15.06975 -17.06369,37.78328 -28.33398,62 -2.04773,4.4 -6.22765,13.4 -9.28711,20 -3.05947,6.6 -8.31531,17.4 -11.67969,24 C 121.95809,959.40239 105,995.42358 105,996.4082 c 0,0.28205 -3.8711,9.1933 -8.603516,19.8027 -4.732417,10.6093 -9.505812,21.3141 -10.605468,23.7891 -1.099655,2.475 -4.93966,10.575 -8.533204,18 -3.593541,7.425 -7.767569,16.2 -9.277343,19.5 -1.509774,3.3 -5.32203,11.4 -8.470703,18 -17.620832,36.9354 -19.459121,53.3846 -8.777344,78.5 1.988312,4.675 4.735073,10.3 6.105469,12.5 10.59136,17.0031 30.821582,30.3472 50.708989,33.4492 3.27401,0.5106 12.02812,0.6451 19.45312,0.2969 7.425,-0.3482 142.2,-0.6879 299.5,-0.7539 296.74927,-0.124 293.41715,-0.078 306,-4.1426 12.60748,-4.0725 27.58641,-13.4056 36.13086,-22.5117 11.55068,-12.3099 17.02369,-32.7377 14.45312,-53.9473 -2.03653,-16.8033 -5.9442,-27.1557 -24.87695,-65.9043 -6.04294,-12.3678 -12.10912,-24.9613 -13.48047,-27.9863 -1.37136,-3.025 -5.50223,-11.9895 -9.17968,-19.9219 -3.67747,-7.9324 -8.41701,-18.5074 -10.53321,-23.5 -8.07973,-19.06185 -10.93337,-25.39446 -15.88867,-35.26951 -2.81269,-5.6052 -7.13062,-14.91745 -9.59766,-20.69336 C 694.8968,934.77407 690.32123,925.03867 675.74219,895 c -4.67142,-9.625 -12.43178,-26.725 -17.24414,-38 -4.81235,-11.275 -12.68018,-28.825 -17.48438,-39 -10.02135,-21.22461 -14.05445,-29.83704 -18.26562,-39 -1.64303,-3.575 -8.84909,-18.65 -16.01367,-33.5 -7.16463,-14.85 -16.15592,-33.975 -19.98047,-42.5 -3.82455,-8.525 -9.78378,-21.8 -13.24219,-29.5 -10.14707,-22.59204 -22.06897,-47.91284 -30.06641,-63.85742 -11.97394,-23.87259 -10.79785,-6.76741 -10.87695,-158.14258 -0.0379,-72.6 -0.45443,-132.7875 -0.92578,-133.75 -0.54163,-1.10602 -1.78325,-1.6724 -3.11524,-1.69141 z m -138.50586,37.16602 c -2.37755,-0.11292 -5.11831,-0.11404 -7.7207,0.0195 -8.25186,0.42412 -9.79652,0.82565 -14.99219,3.9082 -7.14501,4.23909 -14.8264,13.48299 -16.84179,20.26954 -2.86175,9.63657 -1.28067,23.05154 3.54492,30.08398 6.25655,9.11779 13.98444,15.15382 22.48828,17.56445 8.70077,2.46645 23.38277,-1.48092 32.14062,-8.64062 11.06187,-9.04325 15.03663,-24.44312 10.34571,-40.08399 -2.66301,-8.87927 -14.22951,-19.97662 -23.42383,-22.47265 -1.149,-0.31193 -3.16346,-0.53552 -5.54102,-0.64844 z M 466.01758,426 c -5.67307,0 -9.55295,2.40861 -11.99024,7.44336 -2.21101,4.56736 -2.2216,4.75893 -0.52734,9.19531 1.10999,2.90644 2.85419,5.21514 4.86523,6.44141 8.61636,5.25399 20.58159,-0.88569 20.61719,-10.58008 0.0235,-6.40135 -6.3024,-12.5 -12.96484,-12.5 z m -21.9668,59.16211 c -7.92744,-0.28002 -17.96303,0.8039 -23.4375,2.80273 -15.02699,5.48665 -26.69319,17.13615 -32.41992,32.375 -3.18197,8.46724 -3.05154,23.09314 0.30664,34.53711 3.02273,10.3008 5.739,14.98346 12.92969,22.28907 7.11084,7.22447 14.72094,11.56209 26.07031,14.85937 5.23515,1.52095 24.49749,0.56772 29,-1.43555 14.71698,-6.54792 20.81482,-11.36903 27.5332,-21.76367 5.54857,-8.5847 8.06754,-16.68878 8.69141,-27.97265 0.61186,-11.0664 -1.44205,-19.79012 -7,-29.7461 -6.67283,-11.95308 -20.80362,-22.21608 -34.69531,-25.19531 -1.92675,-0.41321 -4.33604,-0.65666 -6.97852,-0.75 z m 1.27149,6.33984 c 1.25055,0.12137 2.44497,0.46206 3.22461,1.18946 0.87493,0.0365 1.75042,0.0906 2.62304,0.13086 2.22676,0.15192 4.014,0.75394 4.06446,3.58984 0.0143,0.80329 -0.60164,1.42485 -1.1875,1.93555 0.13609,0.56684 0.23387,1.13587 0.21093,1.71484 -0.0328,0.82845 -2.99819,1.72317 -3.68164,1.89258 -1.38777,0.3713 -2.85742,0.21882 -4.25195,0.5039 -1.23194,0.3013 -2.37763,0.83975 -3.54883,1.31055 -1.27227,0.5155 -2.61243,0.79757 -3.9668,0.98438 -0.9703,0.15661 -1.91648,0.3986 -2.86914,0.63476 -1.28241,0.2699 -2.58684,0.43849 -3.88281,0.63477 -0.0622,0.008 -0.12344,0.0166 -0.18555,0.0254 -0.53161,0.29614 -1.07845,0.56682 -1.64062,0.81055 -1.80427,0.78728 -3.63546,1.50877 -5.47656,2.20507 -1.87784,0.6758 -3.78322,1.23095 -5.73047,1.66211 -0.1736,0.23577 -0.33612,0.48037 -0.48438,0.73242 -0.82784,1.11281 -1.71393,2.20676 -2.73828,3.14454 -0.6052,0.42917 -2.4773,1.61134 -3.26562,1.39843 -0.41579,-0.11229 -0.80606,-0.29534 -1.19336,-0.48828 -1.06312,0.69414 -2.1603,1.31868 -3.33985,1.82031 -0.89881,0.29282 -1.78792,0.58485 -2.52148,1.19727 -0.0411,0.0394 -0.0629,0.066 -0.0703,0.082 l -0.002,0.002 v 0.002 0.002 0.002 0.002 0.002 0.002 0.002 h 0.002 v 0.002 l 0.002,0.002 h 0.002 0.002 0.002 0.002 c 0.0336,0.003 0.11386,-0.0245 0.14649,-0.0215 l 0.002,0.002 h 0.002 0.002 l 0.002,0.002 h 0.002 0.002 v 0.002 h 0.002 v 0.002 0.002 h 0.002 v 0.002 0.002 0.002 0.002 c -0.009,0.0278 -0.0743,0.0959 -0.24805,0.23828 -2.24088,1.83609 -1.82511,1.74574 -4.77343,-1.19141 -0.19843,-0.1977 0.0125,-0.5598 0.0195,-0.83984 0.16229,-1.64243 0.76814,-3.14645 1.5039,-4.60547 0.75049,-1.40316 1.86286,-2.52915 3.06055,-3.55274 0.92985,-0.83744 1.96358,-1.53054 3.02539,-2.1875 0.56114,-0.35518 1.07407,-0.72863 1.46094,-1.27148 0.64242,-1.02816 1.37245,-2.00802 2.19336,-2.90039 0.93202,-1.03266 1.96661,-1.84191 3.23633,-2.41602 1.29805,-0.41626 2.60907,-0.77988 3.90429,-1.20507 1.18711,-0.38445 2.35904,-0.81441 3.54297,-1.21094 1.33888,-0.47358 2.69672,-0.88826 4.04492,-1.33399 1.02257,-0.36631 1.69239,-1.17519 2.5,-1.85546 1.06353,-1.07433 2.33061,-1.7363 3.76563,-2.16407 1.31807,-0.33676 2.6755,-0.45325 4.0293,-0.53125 1.49015,-0.0657 2.98132,-0.075 4.47265,-0.0859 1.33365,-0.008 2.66829,-0.0117 4.00196,-0.0137 z m -78.52149,116.67188 c -1.95633,-0.0492 -3.9775,-0.0139 -6.07226,0.10156 -12.96747,0.71455 -21.77339,4.68466 -31.7461,14.3125 -15.78437,15.23853 -19.191,36.99518 -9.00586,57.52344 1.63399,3.29334 4.56053,7.92913 6.50391,10.30078 6.31658,7.70855 17.58097,14.775 28.01953,17.57812 1.65,0.44308 6.70852,0.85191 11.24023,0.90821 6.72616,0.0836 9.48116,-0.38736 15,-2.5625 15.77728,-6.21828 25.87286,-16.36806 31.99415,-32.16406 3.59962,-9.28891 3.82978,-23.93341 0.51171,-32.46876 -3.86003,-9.92943 -5.83875,-13.00963 -12.39257,-19.2871 -9.86973,-9.45355 -20.35843,-13.89783 -34.05274,-14.24219 z m 112.59766,23.86133 c -5.16934,-0.0447 -10.08286,3.13674 -13.11719,8.49414 -2.81565,4.97129 -2.85175,8.0218 -0.15039,12.45312 2.54429,4.17366 4.37899,5.69034 8.36914,6.91602 4.09516,1.25793 3.62773,1.28251 8.57227,-0.44336 9.2994,-3.24592 12.97924,-13.92922 7.40234,-21.48828 -3.25788,-4.41581 -6.00447,-5.88784 -11.07617,-5.93164 z m -16.92578,71.00586 c -1.0333,-0.0399 -2.0612,-0.0224 -3.07813,0.0527 -2.71181,0.20035 -5.34507,0.81315 -7.79492,1.86328 -10.06131,4.31278 -18.59547,16.84491 -18.60547,27.32227 -0.0106,11.19559 7.35779,22.1818 18.19141,27.1289 13.98063,6.38416 32.25673,-0.3052 38.32617,-14.02929 3.8249,-8.64877 4.0487,-12.95387 1.11914,-21.47071 -2.07977,-6.0463 -3.47339,-8.26845 -7.57617,-12.08203 -5.85125,-5.4388 -13.34893,-8.50608 -20.58203,-8.78515 z m -81.03321,28.82812 c -2.73359,0.0594 -5.46675,1.09461 -7.84375,3.18164 -6.72858,5.90778 -6.82354,14.11259 -0.23437,20.13086 6.07521,5.54885 17.12118,2.64428 20.99609,-5.52148 2.15513,-4.54161 2.09665,-5.20902 -0.89648,-10.31641 -2.90866,-4.96326 -7.4655,-7.57358 -12.02149,-7.47461 z m -88.57617,25.41016 c -23.20799,-0.89871 -38.99471,3.15468 -46.0918,11.83398 -3.15708,3.86091 -33.51864,63.47871 -41.19336,80.88672 -1.57606,3.575 -4.10724,9.2 -5.625,12.5 -1.51773,3.3 -4.21414,9.375 -5.99023,13.5 -1.77609,4.125 -4.47231,10.2 -5.99219,13.5 -1.51987,3.3 -5.02426,11.175 -7.78711,17.5 -4.64974,10.64463 -13.86954,30.68608 -24.15429,52.5 -5.28726,11.21426 -8.90934,18.99951 -13.02539,28 -1.76066,3.85 -4.50784,9.8125 -6.10352,13.25 -1.59568,3.4375 -4.20408,9.0625 -5.79687,12.5 -1.59279,3.4375 -4.33547,9.625 -6.09571,13.75 -3.34678,7.843 -5.3269,12.2294 -11.50586,25.5 -2.04869,4.4 -5.74592,12.5 -8.21679,18 -4.8778,10.8576 -7.890918,17.3608 -15.523441,33.5 -8.574824,18.1317 -10.027344,23.1263 -10.027344,34.5 0,12.2652 2.860665,21.3763 9.736328,31.0117 8.091385,11.339 21.483027,19.7771 34.529297,21.7578 5.915,0.898 566.21457,-0.3623 577.38477,-1.2988 13.34357,-1.1187 17.36969,-2.5111 26.28125,-9.0918 10.44356,-7.712 14.68747,-13.6431 18.32421,-25.6172 1.83282,-6.0346 2.11669,-8.8629 1.71289,-17 -0.63936,-12.8842 -1.96547,-17.2814 -10.63671,-35.2617 -0.92836,-1.925 -2.18722,-4.4 -2.79883,-5.5 -4.08367,-7.3447 -20.67291,-44.2666 -34.9668,-77.8262 -1.36503,-3.2048 -5.083,-11.3048 -8.26172,-18 -3.17873,-6.69493 -7.46814,-15.7738 -9.5332,-20.1738 -5.33999,-11.37792 -11.96195,-25.39729 -17.47461,-37 -2.61315,-5.5 -5.77031,-12.25 -7.01563,-15 -4.78222,-10.56058 -9.37219,-20.3755 -14.05859,-30.05664 -4.58785,-9.47758 -11.43483,-25.39605 -14.47265,-33.64844 -3.77919,-10.2663 -36.37668,-75.81639 -38.01563,-76.44531 -0.87783,-0.33686 -4.35484,1.30753 -8.24414,3.90039 -15.63892,10.42596 -22.0088,13.43479 -38.69922,18.27148 -13.29991,3.85416 -19.27385,4.60728 -40.92187,5.15821 C 463.95215,817.66334 440.65748,811.80341 392.5,788.98633 387,786.38042 378.10057,782.1684 372.72266,779.625 367.34474,777.0816 362.37146,775 361.67188,775 c -0.6996,0 -1.70016,-0.40441 -2.22266,-0.89844 -2.60457,-2.46263 -33.37283,-12.34947 -46.94922,-15.08594 -3.3,-0.66512 -12.13618,-1.44587 -19.63672,-1.73632 z m 266.48828,265.7129 c 0.47034,4e-4 -0.57056,1.7803 -3.01562,4.8984 -2.10929,2.6899 -4.3722,5.7274 -5.02735,6.75 -0.65516,1.0226 -1.2177,1.4017 -1.25,0.8418 -0.0721,-1.2487 4.58878,-8.3393 7.05469,-10.7324 1.23527,-1.1988 1.97443,-1.758 2.23828,-1.7578 z m -82.19726,4.8379 c 0.1614,0.01 0.27932,0.062 0.34375,0.166 0.34128,0.5522 0.17698,1.0039 -0.36328,1.0039 -0.54026,0 -2.36641,1.1659 -4.0586,2.5898 -1.6922,1.4239 -3.07617,2.1508 -3.07617,1.6172 0,-1.4406 5.59405,-5.4629 7.1543,-5.3769 z m -9.0293,7.625 c 0.006,-4e-4 0.0118,-10e-5 0.0176,0 0.54108,0.01 0.85742,2.1677 0.85742,5.9277 0,3.575 -0.45,6.7773 -1,7.1172 -0.62749,0.3878 -1,-1.8041 -1,-5.8828 0,-3.575 0.45,-6.7773 1,-7.1172 0.0429,-0.026 0.0845,-0.042 0.125,-0.045 z m 79.35156,7.3847 c 0.0636,-0.014 0.13626,0.1169 0.21289,0.4102 0.25152,0.9625 0.25152,2.5375 0,3.5 -0.25153,0.9625 -0.45703,0.175 -0.45703,-1.75 0,-1.3385 0.099,-2.1274 0.24414,-2.1602 z m 3.80274,25.3477 v 0.01 c 0.57145,-0.024 1.89113,1.2545 2.75,2.8593 0.53649,1.0026 0.83091,1.8336 0.69336,1.9336 h -0.002 -0.002 -0.002 -0.002 -0.002 -0.002 -0.0215 c -0.64866,0 -3.68945,-3.6173 -3.68945,-4.3886 0,-0.2792 0.10436,-0.4069 0.2793,-0.4141 z" />
    <path
       style="display:inline;fill:#4063d8;fill-opacity:1;stroke:none;stroke-width:1.51623"
       d="m 102.86991,1193.9519 c -11.743412,-4.5667 -25.467125,-18.7318 -30.011746,-30.9767 -2.825795,-7.6139 -3.294506,-11.3545 -2.774277,-22.1407 0.624471,-12.9475 0.675661,-13.0884 21.089375,-58.0238 11.254868,-24.7747 23.161418,-51.2289 26.459028,-58.7873 3.29759,-7.5584 15.27761,-34.01264 26.62224,-58.78727 11.34464,-24.77465 28.78053,-63.59715 38.74643,-86.27225 18.37743,-41.81355 39.44009,-85.86705 52.03047,-108.82409 6.31021,-11.50588 7.66804,-12.99687 15.29642,-16.79637 8.12119,-4.04497 9.11425,-4.16689 33.21387,-4.07799 24.39188,0.09 25.17,0.19573 42.90956,5.83141 17.79799,5.65424 32.18285,11.69419 70.76312,29.71216 25.50634,11.91212 46.32455,19.14877 63.88971,22.20882 16.25355,2.83156 52.88285,3.29968 67.67841,0.86493 16.25379,-2.6747 35.92834,-9.96275 49.23267,-18.23725 6.94289,-4.31806 13.24162,-7.46353 13.99718,-6.98994 2.10062,1.31666 33.41996,66.25761 42.76496,88.67361 4.55148,10.91764 21.80262,49.05303 38.33591,84.7453 16.53328,35.69228 34.29779,74.85833 39.47668,87.03563 5.17889,12.1775 15.84757,36.094 23.70822,53.148 12.16466,26.3918 14.50367,32.7359 15.71366,42.6203 1.23879,10.1195 1.00841,13.0047 -1.79141,22.4356 -2.74174,9.2353 -4.46386,12.0607 -11.74089,19.2625 -14.55174,14.4012 -13.99308,14.2687 -64.98779,15.4205 -24.42833,0.5517 -160.94847,1.0418 -303.37808,1.0892 l -258.96293,0.086 z m 453.16207,-119.1577 c -0.0398,-3.2948 -2.57556,-6.1648 -4.42349,-5.0066 -1.28869,0.8077 -1.06562,1.9023 0.81781,4.013 3.04051,3.4073 3.63682,3.5717 3.60568,0.9936 z m -87.30166,-31.5977 c 0,-6.7678 0.46709,-7.8282 4.5168,-10.2543 5.1956,-3.1127 5.81242,-5.1015 1.58222,-5.1015 -4.72364,0 -10.61581,9.1907 -10.61581,16.5588 0,4.6224 0.61325,6.3454 2.2584,6.3454 1.7029,0 2.25839,-1.8567 2.25839,-7.5484 z m 81.30232,2.9676 c 0,-1.6797 -0.67752,-3.054 -1.5056,-3.054 -0.82808,0 -1.5056,1.3743 -1.5056,3.054 0,1.6796 0.67752,3.0538 1.5056,3.0538 0.82808,0 1.5056,-1.3742 1.5056,-3.0538 z m 8.32321,-16.8585 c 2.29288,-3.3555 3.66181,-6.6039 3.04204,-7.2185 -1.6147,-1.6014 -11.36525,10.2635 -11.36525,13.8297 0,3.8536 2.5642,1.8168 8.32321,-6.6112 z"
       id="path32"
       sodipodi:nodetypes="cssssssssssssssssssssssscccsssssssssssssssssss" />
    <path
       style="fill:#4063d8;fill-opacity:1;stroke:#ff0000;stroke-width:1.46651"
       d=""
       id="path37" />
    <path
       style="fill:#4063d8;fill-opacity:1;stroke:#ff0000;stroke-width:1.46651"
       d=""
       id="path39" />
    <path
       style="fill:#4063d8;fill-opacity:1;stroke:#ff0000;stroke-width:0.51849"
       d=""
       id="path40" />
    <path
       style="fill:#4063d8;fill-opacity:1;stroke:#ff0000;stroke-width:0.129622"
       d=""
       id="path42" />
    <path
       style="fill:#4063d8;fill-opacity:1;stroke:#ff0000;stroke-width:0.0324056"
       d=""
       id="path44" />
    <path
       style="display:inline;fill:#4063d8;fill-opacity:1;stroke:#ff0000;stroke-width:0.0458284"
       d="m 469.37881,1037.6016 c -0.22172,-1.6023 -0.37831,-2.1379 -0.71784,-2.4551 l -0.12939,-0.1208 0.34088,-0.6246 c 0.18748,-0.3435 0.40116,-0.7215 0.47485,-0.8398 l 0.13398,-0.2153 0.07,0.1677 c 0.0762,0.1823 0.28707,0.3363 0.52116,0.3806 0.17486,0.033 0.56053,-0.05 0.80768,-0.1746 0.097,-0.049 0.18339,-0.082 0.19207,-0.073 0.009,0.01 -0.11601,0.1802 -0.27708,0.3812 -0.69897,0.8724 -1.10041,1.8722 -1.30228,3.2432 -0.0793,0.5385 -0.0836,0.5509 -0.11408,0.3303 z"
       id="path46" />
    <path
       style="display:inline;fill:#4063d8;fill-opacity:1;stroke:#ff0000;stroke-width:0.0458284"
       d="m 467.80135,1047.2409 c -0.38142,-2.26 -0.36193,-6.6851 0.0417,-9.4547 0.10954,-0.7517 0.22596,-1.3073 0.27393,-1.3073 0.0901,0 0.2498,1.4323 0.31686,2.8413 0.12629,2.6538 -0.0501,5.9227 -0.41532,7.6978 -0.0491,0.2389 -0.10708,0.452 -0.12875,0.4737 -0.022,0.022 -0.0611,-0.089 -0.0884,-0.2508 z"
       id="path47" />
    <path
       style="display:inline;fill:#4063d8;fill-opacity:1;stroke:#ff0000;stroke-width:0.0458284"
       d="m 471.18135,1032.2265 c 0.68758,-0.8154 2.77,-2.4055 4.14848,-3.1677 0.84818,-0.469 1.66112,-0.7701 1.77414,-0.6571 0.0389,0.039 0.0184,0.06 -0.0806,0.081 -0.91426,0.2007 -2.16799,0.9934 -4.35668,2.7547 -0.70334,0.566 -1.51288,1.1643 -1.62831,1.2035 -0.0292,0.01 0.0351,-0.087 0.14297,-0.2146 z"
       id="path48" />
    <path
       style="fill:#4063d8;fill-opacity:1;stroke:#ff0000;stroke-width:0.0458284"
       d=""
       id="path49" />
    <path
       style="fill:#4063d8;fill-opacity:1;stroke:#ff0000;stroke-width:0.0458284"
       d=""
       id="path50" />
    <path
       style="display:inline;fill:#4063d8;fill-opacity:1;stroke:#ff0000;stroke-width:0.0114571"
       d="m 473.66595,1031.7603 c 0.0732,-0.067 0.64094,-0.5082 0.99063,-0.7693 0.57669,-0.4305 1.10776,-0.7844 1.66701,-1.1108 0.21056,-0.1229 0.53135,-0.2856 0.5505,-0.2792 0.0291,0.01 -0.54658,0.4537 -1.00412,0.7744 -0.47135,0.3304 -1.21609,0.8087 -1.87397,1.2033 -0.30692,0.1842 -0.37149,0.2197 -0.33005,0.1816 z"
       id="path51" />
    <path
       style="fill:#4063d8;fill-opacity:1;stroke:#ff0000;stroke-width:0.0114571"
       d=""
       id="path52" />
    <path
       style="display:inline;fill:#4063d8;fill-opacity:1;stroke:#ff0000;stroke-width:0.0114571"
       d="m 472.48005,1029.681 c 0.0607,-0.057 0.27799,-0.2387 0.40068,-0.3361 0.268,-0.2128 0.56745,-0.4197 0.87583,-0.6053 0.18663,-0.1123 0.52546,-0.2925 0.53402,-0.2839 0.003,0 -0.0684,0.051 -0.15818,0.1065 -0.51313,0.3187 -0.97797,0.6346 -1.46104,0.993 -0.18245,0.1353 -0.24776,0.1782 -0.19131,0.1258 z"
       id="path53" />
    <path
       style="display:inline;fill:#4063d8;fill-opacity:1;stroke:#ff0000;stroke-width:0.0458284"
       d="m 467.29774,1049.9492 c -0.50624,-0.1 -1.0709,-0.4738 -1.38007,-0.9146 -0.70879,-1.0104 -0.97714,-2.4906 -0.98435,-5.4294 -0.004,-1.6364 0.0369,-2.1716 0.25408,-3.3226 0.9437,-5.0015 3.98032,-10.1399 7.38916,-12.5036 0.23031,-0.1597 0.68684,-0.422 1.01451,-0.583 1.00736,-0.4947 1.73409,-0.6484 2.84136,-0.601 0.97408,0.042 1.73738,0.208 2.16182,0.4708 0.42523,0.2633 0.73757,0.7209 0.78129,1.1446 0.0651,0.6303 -0.3154,1.319 -1.19119,2.1562 -0.7603,0.7269 -1.65624,1.3638 -3.48257,2.4758 -1.25814,0.7661 -1.82384,1.1664 -2.31935,1.6416 -0.83576,0.8014 -1.2092,1.5698 -1.42612,2.9343 -0.15059,0.9473 -0.18727,1.6605 -0.23094,4.4912 -0.0494,3.2028 -0.10376,4.08 -0.32422,5.234 -0.36668,1.9193 -1.24655,2.8744 -2.62509,2.8497 -0.15409,0 -0.36934,-0.022 -0.47832,-0.044 z m -0.44064,-2.3388 c -0.21278,-0.9209 -0.3158,-2.4897 -0.32012,-4.8749 -0.003,-1.6538 -0.0111,-1.8741 -0.0574,-1.57 -0.19194,1.2597 -0.19659,3.5579 -0.0102,5.029 0.0913,0.7204 0.36385,1.8007 0.4361,1.7284 0.0106,-0.011 -0.0111,-0.1512 -0.0484,-0.3125 z m 1.15989,-0.3438 c 0.52006,-2.264 0.66914,-7.1386 0.3054,-9.9858 -0.0766,-0.5996 -0.1565,-0.9853 -0.20411,-0.9853 -0.0932,0 -0.33908,1.3732 -0.45946,2.5664 -0.24479,2.4264 -0.23593,5.945 0.0199,7.8825 0.0772,0.5852 0.15676,0.9624 0.20286,0.9624 0.0189,0 0.0798,-0.1981 0.13546,-0.4402 z m 1.61456,-10.5128 c 0.25093,-1.2456 0.74098,-2.2267 1.52997,-3.0631 l 0.29811,-0.316 -0.39451,0.198 c -0.83927,0.4212 -1.31524,0.3622 -1.50385,-0.1864 l -0.0578,-0.1682 -0.14002,0.2211 c -0.18093,0.2858 -0.56512,0.9612 -0.75442,1.3263 l -0.14837,0.2862 0.12489,0.098 c 0.35322,0.2779 0.65127,1.2895 0.74259,2.5205 0.0477,0.6424 0.0784,0.6619 0.14497,0.092 0.0338,-0.2898 0.10515,-0.7435 0.15847,-1.0082 z m 1.79817,-4.5022 c 0.22278,-0.1495 0.83115,-0.6139 1.35194,-1.032 0.52079,-0.4182 1.14281,-0.9051 1.38227,-1.0821 1.09952,-0.8126 2.29797,-1.4988 2.76328,-1.5823 0.25251,-0.045 0.283,-0.066 0.24558,-0.1631 -0.08,-0.2084 -0.98428,0.1083 -2.03703,0.7134 -1.44547,0.8308 -3.15135,2.1507 -4.00797,3.1012 -0.47112,0.5227 -0.42143,0.5301 0.30193,0.045 z m 4.14681,-1.6365 c 0.71804,-0.4858 1.45166,-1.0487 1.41474,-1.0856 -0.0669,-0.067 -1.21148,0.6096 -2.04826,1.2109 -0.51731,0.3716 -1.55817,1.1888 -1.55817,1.2232 0,0.041 1.52779,-0.8993 2.19169,-1.3485 z m -3.00155,-0.9385 c 0.64315,-0.4837 1.21964,-0.8768 1.71497,-1.1694 0.34526,-0.2039 0.41055,-0.2591 0.2215,-0.1873 -0.4344,0.1652 -1.15056,0.5994 -1.65363,1.0026 -0.31257,0.2506 -0.90831,0.7862 -0.8744,0.7862 0.009,0 0.27553,-0.1945 0.59156,-0.4321 z"
       id="path54" />
    <path
       style="fill:#4063d8;fill-opacity:1;stroke:#ff0000;stroke-width:0.366627"
       d=""
       id="path55" />
    <ellipse
       style="fill:#389828;fill-opacity:1;stroke:none;stroke-width:1.13234;stroke-opacity:1"
       id="path72"
       cx="441.25"
       cy="536"
       rx="57.75"
       ry="58.5" />
    <ellipse
       style="fill:#389828;fill-opacity:1;stroke:none;stroke-width:0.315943;stroke-opacity:1"
       id="path72-2"
       cx="381.52917"
       cy="744.17383"
       rx="16.654089"
       ry="15.792484" />
    <ellipse
       style="fill:#cb3c33;fill-opacity:1;stroke:none;stroke-width:0.315943;stroke-opacity:1"
       id="path72-2-2"
       cx="479.1449"
       cy="645.04706"
       rx="16.654089"
       ry="15.792484" />
    <ellipse
       style="fill:#4063d8;fill-opacity:1;stroke:none;stroke-width:0.614264;stroke-opacity:1"
       id="path72-2-2-1"
       cx="463.12061"
       cy="732.81915"
       rx="31.964331"
       ry="31.102726" />
    <ellipse
       style="fill:#4063d8;fill-opacity:1;stroke:none;stroke-width:0.300356;stroke-opacity:1"
       id="path72-2-2-1-9"
       cx="465.20206"
       cy="438.44586"
       rx="15.445386"
       ry="15.389584" />
    <ellipse
       style="fill:#cb3c33;fill-opacity:1;stroke:none;stroke-width:0.794486;stroke-opacity:1"
       id="path72-2-2-6"
       cx="385.49933"
       cy="389.94794"
       rx="42.036858"
       ry="39.563648" />
    <ellipse
       style="display:inline;fill:#9558b2;fill-opacity:1;stroke:none;stroke-width:1.01053;stroke-opacity:1"
       id="path72-8"
       cx="364.5"
       cy="658.75"
       rx="52.5"
       ry="51.25"
       inkscape:transform-center-x="-66.363636"
       inkscape:transform-center-y="-88.92094" />
    <ellipse
       style="display:inline;fill:#9558b2;fill-opacity:1;stroke:none;stroke-width:0.598045;stroke-opacity:1"
       id="path72-8-1"
       cx="478.8804"
       cy="320.23047"
       rx="31.952044"
       ry="29.493341"
       inkscape:transform-center-x="-40.389584"
       inkscape:transform-center-y="-51.1722" />
    <use
       id="use76"
       inkscape:spray-origin="#path32"
       xlink:href="#path32"
       transform="translate(11.733035,-8.6654316)"
       style="fill:#ffffff" />
    <path
       style="fill:#ffffff;fill-opacity:1;stroke:none;stroke-width:1.76263;stroke-opacity:1"
       d="m 98.769787,1231.1301 c -5.78223,-0.9156 -16.240967,-4.3849 -23.241635,-7.7095 -29.934718,-14.2159 -46.457778,-40.5132 -46.43496,-73.9035 0.0054,-7.9116 0.875824,-17.5038 1.934262,-21.3161 1.824366,-6.571 28.930626,-66.4549 57.100035,-126.147 13.855191,-29.35971 61.612611,-132.01174 88.154081,-189.48251 8.95429,-19.3889 22.80369,-49.13325 30.77644,-66.09854 7.97275,-16.9653 22.04876,-47.4953 31.28003,-67.84445 9.23127,-20.34916 22.36169,-48.50714 29.1787,-62.5733 l 12.39457,-25.57483 1.33627,-54.64147 c 0.73496,-30.0528 1.40781,-91.2695 1.49524,-136.0371 0.17714,-90.69944 0.69206,-86.92613 -11.86467,-86.94517 -17.0548,-0.0258 -26.64796,-7.82488 -24.06887,-19.56745 2.42422,-11.03736 -6.60546,-10.50691 169.94087,-9.98313 156.84706,0.46534 160.85688,0.56107 163.29693,3.89854 3.94973,5.40241 3.13568,15.91484 -1.66454,21.49542 -3.76698,4.37939 -5.32857,4.85544 -16.30431,4.97042 -6.67606,0.0699 -13.12978,0.75765 -14.34159,1.52825 -3.40208,2.16341 -3.1863,262.37908 0.22553,271.97548 1.33584,3.7573 16.30064,36.57581 33.25513,72.93001 16.95449,36.35421 36.80519,79.18607 44.11268,95.18192 7.30748,15.99584 23.36943,50.49929 35.69321,76.67431 12.32379,26.17503 31.35238,67.02393 42.28578,90.77534 10.93339,23.75141 27.42462,59.09716 36.64715,78.54606 9.22255,19.449 17.92709,38.0888 19.34345,41.4218 1.41636,3.333 10.51618,23.1135 20.2218,43.9565 20.4237,43.8604 23.34011,54.9852 19.84568,75.7026 -2.53154,15.0086 -11.23073,33.5044 -20.85318,44.337 -8.24405,9.2809 -26.79444,19.6804 -39.97275,22.4091 -11.70805,2.4243 -624.99014,4.3619 -639.771333,2.0213 z M 701.58856,1219.087 c 27.59501,-1.2125 28.57639,-1.3907 41.42176,-7.519 32.14792,-15.3375 45.12435,-39.2852 40.36076,-74.4851 -2.18326,-16.1329 -6.79901,-28.3056 -25.46924,-67.1677 -7.45189,-15.5111 -20.53735,-43.6691 -29.07878,-62.5733 -18.86958,-41.76273 -35.20035,-77.22438 -47.48588,-103.11375 -5.06044,-10.6639 -15.40359,-33.32012 -22.98478,-50.34718 -7.5812,-17.02704 -24.27685,-53.11684 -37.10148,-80.19957 -12.82462,-27.08271 -32.23247,-68.67428 -43.12856,-92.42569 -10.89609,-23.75141 -24.78916,-53.4479 -30.87347,-65.99221 -9.279,-19.13089 -11.28822,-24.95617 -12.46312,-36.13387 -0.77041,-7.32933 -1.44351,-69.35887 -1.49577,-137.8434 -0.0887,-116.18455 -0.29836,-124.59536 -3.13314,-125.68317 -7.58813,-2.91184 -7.6265,-2.15837 -7.12875,139.97593 l 0.4724,134.90138 11.68925,25.62329 c 12.43481,27.25758 48.6755,105.20259 73.31829,157.69002 17.42314,37.1101 20.79011,47.11355 6.52592,19.38891 -5.48653,-10.6639 -10.24637,-19.68463 -10.57742,-20.04605 -0.33106,-0.36145 -9.56,3.82271 -20.50876,9.29812 -27.53049,13.7678 -41.26806,16.91712 -73.79388,16.91712 -39.29501,0 -58.41926,-4.8542 -108.1467,-27.45033 -21.38173,-9.71586 -22.4365,-10.42553 -17.11344,-11.51421 7.54438,-1.54299 12.2742,-6.09142 13.58167,-13.06085 2.44231,-13.01863 -9.82355,-22.84011 -23.06633,-18.46961 -9.4981,3.13466 -14.13721,14.5454 -9.46377,23.27781 2.31583,4.32719 3.65876,4.61779 -23.1142,-5.00179 -18.42323,-6.61951 -18.63614,-6.65023 -46.70964,-6.73944 -29.12538,-0.0925 -34.342,0.98341 -43.18439,8.90695 -1.45416,1.30305 -5.48068,4.73056 -8.9478,7.61668 -7.14245,5.94552 -28.51079,47.46028 -56.31755,109.41466 -8.91981,19.87363 -37.81865,84.12142 -64.21964,142.77285 -26.400988,58.6515 -49.312765,110.0261 -50.915058,114.1658 -4.115639,10.6334 -3.846676,32.5498 0.517425,42.1622 4.832019,10.6431 17.219631,23.3476 27.415303,28.1165 l 8.81314,4.1223 277.61391,-0.073 c 276.92479,-0.072 330.38054,-0.8758 338.24263,-5.0835 5.84431,-3.1278 23.24887,-16.5799 27.85723,-21.531 12.29715,-13.2118 15.16249,-36.8669 7.01157,-57.8846 -2.44376,-6.3014 -16.00163,-37.2356 -30.12858,-68.7425 -14.12695,-31.507 -25.47156,-57.94337 -25.21023,-58.7475 0.50499,-1.55395 22.21024,43.9434 41.90106,87.8308 6.52439,14.5417 15.26198,33.5781 19.41689,42.3031 6.92169,14.5351 7.55804,17.0446 7.59821,29.9647 0.0331,10.6321 -0.95034,16.6146 -3.99748,24.3186 -4.92052,12.4405 -18.52771,26.9109 -31.04702,33.0165 l -8.81314,4.2982 -177.77689,1.5563 c -101.34805,0.8873 -236.23273,0.8999 -313.74778,0.029 l -135.97089,-1.527 -11.45708,-5.4873 c -21.848293,-10.464 -33.493395,-27.2539 -34.875113,-50.2829 -0.62983,-10.4973 0.0056,-15.9856 2.8816,-24.8877 3.383641,-10.4736 34.036419,-79.6586 54.072363,-122.0444 4.58261,-9.69441 20.43981,-43.80126 35.23823,-75.79296 14.79842,-31.9917 32.63619,-70.46105 39.63948,-85.48746 36.80293,-78.96509 57.17687,-123.21571 66.953,-145.4168 5.97647,-13.57224 19.72758,-43.31659 30.55803,-66.09855 l 19.69171,-41.42176 0.49255,-134.87384 c 0.41756,-114.34136 0.11118,-135.39539 -2.01255,-138.29977 -2.08542,-2.85198 -2.96164,-3.04701 -5.23034,-1.16416 -2.40561,1.99648 -2.78978,17.90771 -3.27535,135.65582 l -0.55008,133.39407 -20.5907,44.94701 c -11.32489,24.72086 -27.07559,58.43112 -35.00155,74.91169 -7.92597,16.48057 -17.19484,36.70673 -20.59747,44.94701 -3.40264,8.24029 -12.51284,28.46644 -20.24487,44.94701 -7.73203,16.48058 -24.7865,53.36357 -37.89882,81.96221 -13.11231,28.59863 -28.40535,61.11912 -33.98454,72.26774 -5.57918,11.14862 -15.9035,33.35774 -22.94293,49.35359 -7.039433,15.99585 -21.709828,48.11975 -32.600879,71.38645 -24.46323,52.2611 -26.372217,57.7406 -26.405452,75.793 -0.05659,30.7411 18.904532,58.6944 47.900929,70.6175 l 10.239832,4.2105 285.54573,-0.1036 c 157.05016,-0.057 298.26484,-0.6625 313.81041,-1.3456 z M 482.92338,758.07751 c 13.17649,-10.05019 16.59079,-28.49941 7.88202,-42.59049 -10.01443,-16.2037 -34.1901,-19.32654 -49.55155,-6.40075 -15.76626,13.26645 -13.23037,39.71424 4.88472,50.94456 5.79995,3.59564 8.65272,4.16213 18.50841,3.67526 9.59132,-0.47381 12.82303,-1.46908 18.2764,-5.62858 z m -96.30304,-52.21946 c 26.26574,-11.58186 38.37678,-44.07189 25.91948,-69.53368 -8.4505,-17.27221 -24.08096,-27.3887 -44.36378,-28.71357 -18.21047,-1.1895 -28.76103,2.74865 -41.50458,15.4922 -7.99793,7.99792 -10.62974,12.1045 -13.01425,20.30685 -8.77718,30.19249 8.56246,58.6665 40.63101,66.72151 6.62137,1.66317 24.11164,-0.64852 32.33212,-4.27331 z M 492.21111,655.7083 c 5.79149,-6.73301 5.31394,-15.68155 -1.18364,-22.17913 -7.00378,-7.0038 -15.59908,-7.03505 -23.37752,-0.085 -7.90687,7.06477 -7.74314,16.43686 0.41446,23.72568 4.90614,4.38364 6.71071,4.95866 12.93963,4.12319 4.8168,-0.64607 8.56611,-2.51444 11.20707,-5.58473 z m -25.04393,-66.53192 c 10.73795,-5.49923 22.67582,-18.0347 27.83879,-29.23236 5.40922,-11.73175 5.40922,-36.47848 0,-48.21024 -5.37834,-11.66479 -16.93355,-23.47781 -28.54144,-29.17829 -8.49763,-4.17308 -12.12293,-4.88331 -24.92622,-4.88331 -12.50499,0 -16.58533,0.76151 -24.67679,4.60539 -11.7592,5.58627 -21.72154,15.3066 -27.79721,27.12191 -5.85824,11.3925 -7.50524,33.54964 -3.39132,45.62334 5.89748,17.30809 20.47906,32.00432 37.17494,37.46714 11.67454,3.81988 33.58964,2.18138 44.31925,-3.31358 z m 9.18578,-139.26559 c 5.41735,-5.80381 6.50535,-12.32793 3.14086,-18.83413 -7.26689,-14.05263 -27.75221,-10.48388 -30.25813,5.27127 -0.81018,5.09365 -0.10982,7.32078 3.74144,11.89774 3.95592,4.70134 5.97116,5.63103 12.20609,5.63103 5.47255,0 8.45698,-1.05965 11.16974,-3.96591 z m -72.85597,-23.18767 c 14.81363,-6.2085 24.46249,-20.97632 24.31656,-37.21713 -0.10093,-11.23129 -3.44407,-19.5068 -10.88728,-26.95002 -8.31079,-8.31078 -15.29622,-11.33715 -28.31903,-12.26893 -25.38487,-1.81627 -45.84632,15.9164 -45.73739,39.63778 0.13464,29.31679 32.1348,48.73963 60.62714,36.7983 z m 89.68233,-79.22286 c 19.09901,-7.98007 24.1097,-32.88866 9.70126,-48.22575 -13.81068,-14.70079 -44.75358,-10.57127 -53.13497,7.09119 -4.29501,9.05105 -3.80294,22.29468 1.09861,29.56808 8.34048,12.37642 27.72278,17.67191 42.3351,11.56648 z"
       id="path81" />
  </g>
</svg>
