<?xml version="1.0" encoding="UTF-8" standalone="no"?>
<!-- Created with Inkscape (http://www.inkscape.org/) -->

<svg
   version="1.1"
   id="svg1"
   width="832"
   height="1248"
   viewBox="0 0 832 1248"
   sodipodi:docname="logo.svg"
   inkscape:version="1.4 (86a8ad7, 2024-10-11)"
   xmlns:inkscape="http://www.inkscape.org/namespaces/inkscape"
   xmlns:sodipodi="http://sodipodi.sourceforge.net/DTD/sodipodi-0.dtd"
   xmlns="http://www.w3.org/2000/svg"
   xmlns:svg="http://www.w3.org/2000/svg">
  <defs
     id="defs1">
    <inkscape:path-effect
       effect="spiro"
       id="path-effect404"
       is_visible="true"
       lpeversion="1" />
    <inkscape:path-effect
       effect="spiro"
       id="path-effect403"
       is_visible="true"
       lpeversion="1" />
    <inkscape:path-effect
       effect="spiro"
       id="path-effect402"
       is_visible="true"
       lpeversion="1" />
  </defs>
  <sodipodi:namedview
     id="namedview1"
     pagecolor="#ffffff"
     bordercolor="#000000"
     borderopacity="0.25"
     inkscape:showpageshadow="2"
     inkscape:pageopacity="0.0"
     inkscape:pagecheckerboard="0"
     inkscape:deskcolor="#d1d1d1"
     showgrid="false"
     inkscape:zoom="1.7335973"
     inkscape:cx="416.76346"
     inkscape:cy="680.954"
     inkscape:window-width="1920"
     inkscape:window-height="1009"
     inkscape:window-x="3832"
     inkscape:window-y="-8"
     inkscape:window-maximized="1"
     inkscape:current-layer="g1" />
  <g
     inkscape:groupmode="layer"
     inkscape:label="Image"
     id="g1">
    <path
       style="fill:#ffffff;fill-opacity:1;stroke:none;stroke-width:3.81732283;stroke-dasharray:none;stroke-opacity:1"
       d="m 89.930104,1229.2544 c -37.364793,-11.5352 -60.852972,-42.5055 -60.734238,-80.0809 0.06983,-22.0979 -6.668051,-6.3562 106.341724,-248.445 44.34595,-94.99759 89.99468,-193.27835 101.44163,-218.40168 11.44694,-25.12333 25.98431,-56.83614 32.30527,-70.47294 l 11.49266,-24.79416 0.93016,-136.50904 0.93016,-136.50905 -13.23691,-1.52274 c -15.47331,-1.78002 -22.44964,-6.6299 -22.44964,-15.6068 0,-14.30558 -0.91275,-14.21691 155.31551,-15.08804 80.23344,-0.44738 152.91886,0.20893 161.52321,1.45846 13.5013,1.96068 16.01678,3.33121 18.36398,10.00547 4.2065,11.96117 -4.02639,19.32619 -21.60355,19.32619 h -13.83214 l 0.0442,136.32262 0.0442,136.32262 10.95063,24.26685 c 11.5997,25.70519 74.04428,160.11926 145.89392,314.04163 83.84387,179.61731 94.57467,204.21491 96.27443,220.68411 3.12732,30.3008 -14.21101,62.1644 -42.2877,77.7146 l -15.35738,8.5056 -322.6064,0.4928 c -177.43352,0.2711 -325.818196,-0.4987 -329.743716,-1.7106 z m 640.782256,-46.0758 c 9.89431,-10.4726 12.69718,-15.8151 14.26046,-27.1816 2.35485,-17.1217 3.68776,-13.5288 -34.95121,-94.2138 -17.22941,-35.9781 -50.91874,-107.81037 -74.86516,-159.62724 -23.94641,-51.81687 -44.36306,-95.14767 -45.37028,-96.29067 -1.00721,-1.143 -15.23804,3.18472 -31.62402,9.61715 -25.81705,10.13464 -33.61636,11.88882 -58.4462,13.14527 -40.39951,2.04435 -53.04186,-1.64992 -159.98,-46.74852 -22.9563,-9.68128 -28.28022,-10.83561 -49.96117,-10.83278 -36.83905,0.005 -44.71755,5.11682 -62.45743,40.52587 -15.40462,30.74779 -115.56567,251.15422 -134.576459,296.13822 -18.245985,43.1743 -15.788817,67.1476 8.564479,83.5593 l 9.63909,6.4958 303.72659,-0.7762 303.72656,-0.7763 z m -243.29183,-407.97 c 24.30834,-19.12094 10.96251,-57.14941 -20.06851,-57.18455 -16.90946,-0.0192 -27.28283,8.21841 -32.97337,26.18439 -2.54628,8.03904 3.62932,24.60385 11.47282,30.77354 9.99158,7.85937 31.71504,7.9778 41.56906,0.22662 z m -89.15864,-2.95168 c 3.14041,-3.14041 5.70985,-8.27928 5.70985,-11.41969 0,-7.91334 -9.98422,-17.12955 -18.55701,-17.12955 -8.57279,0 -18.557,9.21621 -18.557,17.12955 0,7.91333 9.98421,17.12954 18.557,17.12954 3.92552,0 9.70674,-2.56943 12.84716,-5.70985 z m -1.5953,-52.24528 c 15.38975,-8.48948 24.32706,-24.70571 24.38773,-44.25017 0.0956,-30.80835 -21.49875,-51.96059 -53.04669,-51.96059 -41.6355,0 -66.3312,43.05365 -45.2902,78.9574 14.74112,25.15382 46.28543,32.51353 73.94916,17.25336 z m 99.15165,-46.69208 c 15.09569,-13.66141 -4.81149,-36.71175 -21.98666,-25.45815 -9.15571,5.99908 -11.33719,14.72704 -5.79501,23.18549 5.48071,8.36461 19.75944,9.53268 27.78167,2.27266 z m -23.06362,-67.58113 c 36.10114,-19.05918 41.88145,-69.46283 11.14999,-97.22686 -26.77961,-24.19376 -67.80693,-18.63689 -88.52294,11.98983 -6.0461,8.9386 -7.11202,13.79367 -7.11202,32.39418 0,19.70526 0.8512,23.08824 8.56478,34.03992 11.26992,16.00091 29.28438,25.44568 48.5337,25.44568 9.98864,0 18.89677,-2.16072 27.38649,-6.64275 z m 8.30006,-138.95837 c 3.14042,-3.14041 5.70985,-8.27928 5.70985,-11.41969 0,-7.07685 -9.6799,-17.12955 -16.49429,-17.12955 -16.03389,0 -24.06196,20.95985 -11.4197,29.81482 8.53988,5.98157 15.34487,5.5937 22.20414,-1.26558 z m -71.94505,-23.99559 c 29.58121,-15.3911 31.04701,-52.97287 2.73924,-70.23232 -11.36222,-6.92764 -30.51605,-7.4122 -43.80096,-1.1081 -27.81832,13.20066 -28.10284,57.02814 -0.45867,70.65618 11.50298,5.67074 31.30915,5.99713 41.52039,0.68424 z m 97.41977,-84.71113 c 12.7186,-12.71861 12.37498,-28.16492 -0.92237,-41.46228 -8.28536,-8.28535 -11.67162,-9.70674 -23.12489,-9.70674 -11.45327,0 -14.83952,1.42139 -23.12488,9.70674 -11.09355,11.09355 -12.70824,22.87263 -4.93845,36.02583 6.1251,10.36896 13.43328,13.78789 29.98493,14.02761 11.22807,0.16262 14.73269,-1.19818 22.12566,-8.59116 z"
       id="path416" />
    <path
       style="fill:none;fill-opacity:1;stroke:#000000;stroke-opacity:1"
       d="m 734,1233.0166 c 20.29366,-3.8385 36.16362,-12.6236 48.32405,-26.7507 16.92796,-19.6656 23.94929,-46.1414 19.09987,-72.021 -2.26896,-12.1087 -4.73428,-18.2805 -19.87038,-49.7449 -4.23329,-8.8 -8.51351,-17.8 -9.51159,-20 -7.71311,-17.0014 -12.75226,-28.021 -15.54789,-34 -1.80016,-3.85 -4.72682,-10.15 -6.50369,-14 -1.77687,-3.85 -5.87661,-12.538 -9.11052,-19.30656 C 737.64593,990.42483 735,984.71762 735,984.51075 c 0,-0.20687 -3.62047,-7.94392 -8.04549,-17.19344 -4.42502,-9.24952 -8.65772,-18.16731 -9.40599,-19.81731 -0.74827,-1.65 -3.2028,-6.96367 -5.45451,-11.80816 C 709.84231,930.84736 708,926.6717 708,926.41262 c 0,-0.25909 -2.40956,-5.52042 -5.35458,-11.69185 C 694.08497,896.78197 689,885.9098 689,885.54553 c 0,-0.18598 -3.6,-7.82875 -8,-16.98392 -4.4,-9.15517 -8,-16.86262 -8,-17.12766 0,-0.26505 -2.66117,-5.98362 -5.91371,-12.70793 C 656.79654,817.45295 642,786.05147 642,785.48745 642,785.03069 637.33681,774.93402 629.76666,759 c -2.74366,-5.775 -8.55048,-18.52495 -12.90403,-28.33322 -4.35356,-9.80827 -10.21464,-22.63327 -13.02464,-28.5 C 588.98332,671.15313 585,662.74873 585,662.42049 585,661.72166 579.71613,650.34136 572.3966,635.27553 568.32847,626.90207 565,619.82174 565,619.54146 c 0,-0.28028 -1.38273,-3.32927 -3.07273,-6.77553 -1.69001,-3.44626 -5.40251,-11.21593 -8.25,-17.26593 L 548.5,584.5 548.2356,451.61981 c -0.19524,-98.12479 0.033,-133.23846 0.87244,-134.25 C 549.94919,316.3563 553.21721,316 561.6721,316 c 7.89336,0 12.2623,-0.43627 14.12756,-1.41072 14.21485,-7.42619 13.24597,-29.82233 -1.45025,-33.52288 -3.20396,-0.80677 -48.60222,-1.11368 -161.45846,-1.09154 -142.87859,0.028 -157.28863,0.17692 -160.1961,1.65507 -6.50792,3.30862 -8.69485,7.12022 -8.69485,15.15429 0,11.81395 8.68145,18.19911 24.78751,18.23109 4.24187,0.008 8.38749,0.44183 9.21249,0.96312 2.35576,1.48854 2.53589,11.75875 2.51726,143.52157 l -0.0173,122 -2.83792,6.5 c -1.56086,3.575 -4.56491,10.1 -6.67567,14.5 C 258.92629,627.64003 252,642.24819 252,642.54405 c 0,0.18465 -2.08003,4.75027 -4.6223,10.14583 -2.54226,5.39557 -6.31574,13.63512 -8.3855,18.31012 -2.06976,4.675 -5.8724,12.99901 -8.4503,18.4978 -2.57791,5.49879 -6.06328,13.14879 -7.74528,17 -1.682,3.85121 -6.18319,13.7522 -10.00263,22.0022 -3.81945,8.25 -7.74109,16.8 -8.71477,19 -2.97464,6.72113 -4.0259,8.93658 -4.98239,10.5 -1.32283,2.16223 -7.96524,16.30544 -18.77825,39.98319 -2.38812,5.22937 -4.0493,8.81297 -11.13296,24.01681 -1.66563,3.575 -6.26402,13.475 -10.21864,22 -3.95462,8.525 -8.66098,18.65 -10.45858,22.5 -1.7976,3.85 -7.6512,16.45 -13.008,28 -5.3568,11.55 -12.21079,26.175 -15.23109,32.5 -3.0203,6.325 -7.27532,15.55 -9.45561,20.5 -2.18028,4.95 -4.38029,9.4275 -4.88892,9.95 -0.50863,0.5225 -0.92478,1.47966 -0.92478,2.12702 0,1.13527 -7.155569,16.47294 -20.586887,44.12718 C 80.885901,1010.9665 78,1017.1205 78,1017.3798 c 0,0.2592 -3.405736,7.8173 -7.568303,16.7958 -10.059649,21.6981 -10.354659,22.3298 -17.363892,37.1803 C 49.730512,1078.4266 47,1084.4079 47,1084.6476 c 0,0.5966 -5.539626,12.5359 -9.202014,19.8326 -4.627176,9.219 -8.930766,20.4025 -10.397668,27.0198 -2.773045,12.5094 -1.392586,32.5128 3.20656,46.4642 9.598283,29.1163 36.90145,51.2834 68.893122,55.9335 8.84074,1.285 627.59055,0.4258 634.5,-0.8811 z"
       id="path334" />
    <path
       style="fill:none;fill-opacity:1;stroke:#000000;stroke-opacity:1"
       d="m 728.04351,1234.0896 c 27.37381,-2.6005 50.57623,-17.2781 64.06297,-40.5255 7.53371,-12.9861 12.63206,-33.8049 11.53523,-47.1034 -1.49057,-18.0725 -4.24881,-25.9346 -22.08822,-62.9607 -4.2399,-8.8 -8.50468,-17.8 -9.47729,-20 -0.97261,-2.2 -4.04527,-8.95 -6.82814,-15 -2.78286,-6.05 -6.50329,-14.15 -8.26762,-18 -1.76433,-3.85 -4.9567,-10.6857 -7.09416,-15.1904 -2.13745,-4.5047 -3.88628,-8.4077 -3.88628,-8.6733 0,-0.2656 -3.76591,-8.27995 -8.36868,-17.80962 C 726.00956,964.76478 720,952.07845 720,951.60652 c 0,-0.22061 -2.475,-5.64849 -5.5,-12.06195 -3.025,-6.41345 -5.5,-11.85646 -5.5,-12.09557 0,-0.23911 -2.74232,-6.17545 -6.09405,-13.19187 -3.35173,-7.01642 -6.90932,-14.55713 -7.90576,-16.75713 -0.99644,-2.2 -3.91761,-8.5 -6.4915,-14 -2.57389,-5.5 -7.19318,-15.4 -10.2651,-22 -3.07191,-6.6 -8.1565,-17.4 -11.29908,-24 -3.14258,-6.6 -7.39608,-15.6 -9.45221,-20 -2.05614,-4.4 -5.42452,-11.6 -7.48531,-16 C 642.73792,785.97973 639,777.8178 639,777.46567 c 0,-0.19584 -2.97506,-6.56823 -6.61125,-14.16087 C 628.75257,755.71216 621.9622,740.95 617.29905,730.5 612.6359,720.05 606.76912,707.225 604.26177,702 c -7.05633,-14.70446 -16.2675,-34.17772 -17.73812,-37.5 -3.02169,-6.8263 -7.0765,-15.60398 -11.77961,-25.5 -2.74459,-5.775 -6.76113,-14.2774 -8.92565,-18.89421 -2.16453,-4.61682 -5.65815,-12.04182 -7.76361,-16.5 C 555.94932,599.1476 552.9802,592.575 551.45675,589 l -2.76991,-6.5 -0.28757,-130.13545 c -0.15817,-71.5745 0.0578,-131.4245 0.47996,-133 l 0.76753,-2.86455 12.49647,-0.0617 c 12.16195,-0.0601 12.59676,-0.13819 16.24247,-2.91892 4.97245,-3.79267 7.95494,-9.74252 8.03006,-16.01938 0.1147,-9.58364 -5.80024,-16.19746 -15.75622,-17.61788 -2.83775,-0.40486 -74.36149,-0.76897 -158.94166,-0.80912 -168.45431,-0.08 -157.57416,-0.45699 -163.98383,5.68242 -5.76084,5.51794 -5.93204,16.67158 -0.35341,23.02537 4.61138,5.25214 9.94717,7.21316 20.75081,7.62637 7.52905,0.28797 9.46588,0.68925 10.56197,2.18824 1.11016,1.51824 1.29592,24.66393 1.0744,133.8701 L 279.5,583.5 271.64602,600 c -4.31968,9.075 -10.50718,22.05479 -13.75,28.84397 C 254.65321,635.63315 252,641.36195 252,641.57462 c 0,0.21267 -1.76337,4.10788 -3.9186,8.65603 -4.77463,10.07584 -13.90259,30.00286 -23.25589,50.76935 -5.97163,13.25842 -10.337,22.77647 -20.86815,45.5 -1.01959,2.2 -2.32602,5.125 -2.90319,6.5 -0.57717,1.375 -1.48361,3.175 -2.01431,4 -0.88687,1.37868 -3.2947,6.47385 -12.75144,26.98319 -5.83813,12.66146 -8.4065,18.20365 -12.28842,26.51681 -2.05463,4.4 -4.86496,10.475 -6.24517,13.5 -5.19917,11.39499 -15.23799,32.9364 -20.89269,44.83175 C 143.63797,875.61421 141,881.31602 141,881.50243 c 0,0.32863 -12.55364,27.18941 -21.73107,46.49757 -2.48351,5.225 -5.62709,11.975 -6.98572,15 -7.99633,17.80387 -23.849064,51.81972 -29.234041,62.7287 C 80.272126,1011.3544 78,1016.1358 78,1016.354 c 0,0.2181 -2.403319,5.5152 -5.340709,11.7713 -2.93739,6.2561 -7.486054,16.0997 -10.108142,21.8747 -2.622087,5.775 -7.193768,15.598 -10.159291,21.8289 C 49.426336,1078.0597 47,1083.4089 47,1083.716 c 0,0.307 -2.743718,6.2341 -6.09715,13.1711 -15.445101,31.9505 -18.010437,43.6151 -14.429887,65.6129 3.028476,18.606 9.434199,32.177 20.891937,44.261 15.853399,16.72 34.0482,25.8775 55.6351,28.0012 10.8369,1.0661 613.56842,0.4176 625.04351,-0.6726 z"
       id="path302" />
    <path
       style="fill:none;fill-opacity:1;stroke:#000000;stroke-opacity:1"
       d="m 723.15703,1234.8477 c 21.12521,-1.3884 35.02355,-6.4534 49.65486,-18.0959 24.00525,-19.1015 36.16871,-54.2651 29.20104,-84.4178 -2.55511,-11.0573 -7.13356,-22.2972 -19.39829,-47.6218 C 777.87659,1074.9289 774,1066.753 774,1066.5436 c 0,-0.5785 -12.37789,-27.342 -24.11448,-52.1404 -1.58704,-3.3533 -2.88552,-6.352 -2.88552,-6.6639 0,-0.3118 -3.76659,-8.36821 -8.37021,-17.90312 -8.5537,-17.71623 -14.22046,-29.68081 -19.10433,-40.33618 -1.51255,-3.3 -4.49955,-9.73867 -6.63777,-14.30816 C 710.74946,930.62236 709,926.69117 709,926.45587 c 0,-0.2353 -2.52416,-5.72162 -5.60924,-12.19184 -6.23903,-13.08484 -8.57421,-18.07626 -21.64415,-46.26403 -8.68272,-18.72591 -11.95572,-25.68066 -24.0013,-51 -3.00909,-6.325 -6.61896,-13.975 -8.02193,-17 C 642.04429,783.44277 639,776.76938 639,776.49331 c 0,-0.16946 -2.97328,-6.53728 -6.60729,-14.15071 -3.634,-7.61343 -10.10547,-21.7176 -14.38104,-31.3426 -7.56644,-17.03327 -9.98678,-22.21129 -25.00736,-53.5 -3.96053,-8.25 -7.78313,-16.575 -8.49468,-18.5 -0.71155,-1.925 -4.43344,-10.025 -8.27086,-18 -3.83742,-7.975 -8.44381,-17.65 -10.23641,-21.5 -1.79261,-3.85 -5.26741,-11.275 -7.72178,-16.5 -2.45438,-5.225 -5.54657,-12.07394 -6.87154,-15.21987 L 549,582.06026 V 450.08915 c 0,-100.45114 0.28232,-132.1456 1.18203,-132.70165 0.65012,-0.4018 6.61262,-0.76586 13.25,-0.80902 11.1781,-0.0727 12.30812,-0.25863 15.32472,-2.52153 C 582.72618,311.07928 587,302.84232 587,298.16968 c 0,-8.48759 -4.71887,-15.63994 -11.89922,-18.03557 -2.47768,-0.82665 -46.26131,-1.12965 -161.5,-1.11766 L 255.5,279.0329 l -3.97043,2.24878 C 245.73253,284.56501 243,289.14651 243,295.58278 c 0,13.40027 7.1634,19.37241 24.23804,20.2073 7.04348,0.34441 10.08722,0.8968 11,1.99635 0.99789,1.20209 1.32253,28.01106 1.55143,128.11571 0.17326,75.77248 -0.0885,129.02325 -0.652,132.64277 -0.91369,5.86879 -4.41586,14.01311 -20.77098,48.30296 C 254.86492,634.18919 252,640.34555 252,640.52866 c 0,0.18311 -2.7,6.02021 -6,12.97134 -3.3,6.95113 -6,12.82412 -6,13.05111 0,0.3746 -15.44332,34.11427 -21.7183,47.44889 -1.4235,3.025 -4.72145,10.225 -7.32878,16 -7.03211,15.57548 -10.07517,22.12777 -16.95159,36.5 -3.42093,7.15 -7.22392,15.25 -8.45108,18 -1.22716,2.75 -3.50476,7.7 -5.06135,11 -1.55658,3.3 -4.6011,9.825 -6.7656,14.5 -2.16451,4.675 -4.98699,10.75 -6.27218,13.5 -1.2852,2.75 -5.27052,11.38584 -8.85627,19.19076 -3.58575,7.80491 -8.36712,18.098 -10.62525,22.87353 -2.25813,4.77553 -5.4714,11.66469 -7.14059,15.30924 -4.06251,8.87019 -15.88324,34.13415 -22.04996,47.12647 -2.74107,5.775 -6.77549,14.55 -8.96538,19.5 -5.28464,11.94531 -14.517819,31.77665 -22.81367,49 -6.807743,14.1338 -14.401349,30.4164 -24.017796,51.5 -5.852004,12.8303 -7.200018,15.7296 -19.541219,42.0299 -12.194923,25.9885 -16.152282,36.2963 -17.962871,46.7881 -1.442524,8.359 -1.438104,10.2053 0.0521,21.7654 1.864652,14.4649 5.313961,25.1715 11.421347,35.4517 10.000181,16.8328 28.270361,31.1244 47.89001,37.4612 14.184155,4.5813 1.949102,4.4168 322.158429,4.3305 166.81293,-0.045 308.62589,-0.4841 316.15703,-0.9791 z"
       id="path226" />
    <path
       style="fill:none;fill-opacity:1;stroke:#000000;stroke-opacity:1"
       d="m 729.89707,1234.9334 c 5.16838,-0.6132 12.59338,-2.1361 16.5,-3.384 34.09615,-10.8917 57.7469,-43.7779 57.92859,-80.5494 0.0906,-18.3347 -3.59972,-29.8516 -21.23555,-66.2727 C 778.09055,1074.4023 774,1065.7371 774,1065.4714 c 0,-0.4807 -8.95411,-19.8978 -17.97148,-38.9714 -2.60022,-5.5 -5.43392,-11.575 -6.29712,-13.5 -3.6141,-8.0597 -7.86212,-17.21015 -13.23085,-28.5 -6.6468,-13.9775 -12.07854,-25.54287 -23.39313,-49.80913 C 710.84834,929.84585 709,925.65697 709,925.38225 c 0,-0.27473 -3.6,-7.92687 -8,-17.00478 -4.4,-9.0779 -8,-16.67498 -8,-16.88239 0,-0.31553 -7.60757,-16.71546 -26.20684,-56.49508 -1.67151,-3.575 -5.90878,-12.47044 -9.41614,-19.76765 C 653.86966,807.93514 651,801.77878 651,801.55155 c 0,-0.22723 -2.7,-6.10042 -6,-13.05155 -3.3,-6.95113 -6,-12.82206 -6,-13.04653 0,-0.22447 -2.96701,-6.60582 -6.59336,-14.18079 -3.62635,-7.57498 -10.11297,-21.68602 -14.41473,-31.35789 -4.30175,-9.67186 -10.50808,-23.17186 -13.79183,-30 C 592.63769,675.87232 585,659.75813 585,659.40601 c 0,-0.44345 -4.17984,-9.55132 -10.9711,-23.90601 -2.86227,-6.05 -6.56508,-13.925 -8.22845,-17.5 -1.66338,-3.575 -4.72257,-10.1 -6.79821,-14.5 -2.07564,-4.4 -5.06277,-10.925 -6.63806,-14.5 L 549.5,582.5 549.21083,453 c -0.15905,-71.225 -0.0262,-130.9625 0.29531,-132.75 l 0.58449,-3.25 h 12.00434 c 12.73654,0 15.51616,-0.73338 19.53806,-5.15499 5.68204,-6.24674 7.34838,-16.06109 3.88273,-22.86841 -2.1342,-4.19206 -4.10454,-6.16479 -8.60983,-8.62029 -3.27024,-1.78236 -9.68765,-1.86866 -161.08099,-2.16635 l -157.67506,-0.31003 -5.00276,2.15213 c -7.35793,3.16529 -10.66944,8.35225 -10.57522,16.56441 0.14649,12.76761 8.48975,19.3755 24.48697,19.39376 5.25543,0.006 9.21757,0.49223 10.26549,1.25977 1.59628,1.16918 1.68945,9.81651 1.44113,133.75 L 278.5,583.5 l -11.88496,25 c -11.64831,24.50222 -19.55729,41.52361 -28.11129,60.5 -2.35528,5.225 -6.80715,14.82372 -9.89304,21.33049 -3.08589,6.50677 -5.61071,11.99263 -5.61071,12.1908 0,0.19817 -1.84587,4.32445 -4.10194,9.16951 -2.25607,4.84506 -6.12711,13.3092 -8.60231,18.8092 -2.4752,5.5 -6.52772,14.275 -9.0056,19.5 -7.37796,15.5576 -23.41156,49.88618 -28.02377,60 -1.3795,3.025 -3.97493,8.65 -5.76763,12.5 -1.7927,3.85 -6.0588,13.075 -9.48021,20.5 -10.09003,21.89696 -30.65197,65.93325 -39.22225,84 -2.21767,4.675 -7.07916,15.25 -10.8033,23.5 -7.77915,17.23294 -13.198278,28.82461 -21.738829,46.5 -7.03244,14.5542 -17.316191,36.6561 -23.84827,51.2549 -2.521255,5.6348 -5.869712,12.9585 -7.441015,16.275 -21.853491,46.1244 -26.209837,56.2201 -28.947202,67.0842 -5.760271,22.8615 1.788091,53.7167 17.702475,72.3619 16.09493,18.8567 35.866227,29.3779 59.779851,31.8116 12.14444,1.2359 615.71912,0.4129 626.39707,-0.8542 z"
       id="path141" />
    <path
       style="fill:none;fill-opacity:1;stroke:#000000;stroke-opacity:1"
       d="m 724.23709,1235.9051 c 19.9283,-1.4544 34.89944,-7.0679 48.83082,-18.3093 13.79023,-11.1276 24.35667,-27.6632 29.15084,-45.6187 1.83192,-6.861 2.25782,-11.0507 2.23408,-21.9771 -0.0433,-19.91 -1.76166,-25.1054 -23.09554,-69.8265 C 777.86078,1072.844 775,1066.682 775,1066.4803 c 0,-0.3136 -6.25686,-13.8873 -18.08339,-39.2303 -1.60413,-3.4375 -4.31758,-9.2875 -6.02987,-13 -1.7123,-3.7125 -4.82035,-10.35 -6.90679,-14.75 -6.18968,-13.05316 -13.96021,-29.54636 -17.19644,-36.5 -1.66381,-3.575 -4.49858,-9.65 -6.29949,-13.5 -6.44094,-13.76947 -9.58782,-20.64576 -13.39008,-29.25882 -2.12234,-4.80765 -5.93671,-12.87401 -8.47637,-17.92524 C 696.0779,897.26471 694,892.84974 694,892.5049 c 0,-0.34484 -1.85249,-4.53702 -4.11664,-9.31594 C 687.61921,878.41003 682.42075,867.3 678.33123,858.5 c -4.08952,-8.8 -9.17864,-19.6 -11.30915,-24 C 658.84437,817.61114 651,801.00429 651,800.58059 c 0,-0.2432 -2.7,-6.12946 -6,-13.08059 -3.3,-6.95113 -6,-12.79605 -6,-12.98871 0,-0.19267 -2.41133,-5.44903 -5.3585,-11.6808 -2.94718,-6.23177 -6.59043,-14.03049 -8.09611,-17.33049 -1.50569,-3.3 -3.87234,-8.475 -5.25924,-11.5 -1.3869,-3.025 -4.21231,-9.325 -6.27868,-14 -2.06638,-4.675 -6.6856,-14.575 -10.26494,-22 -10.61856,-22.02722 -16.71695,-34.9805 -20.71514,-44 -2.07235,-4.675 -6.12308,-13.45 -9.00163,-19.5 -2.87855,-6.05 -6.05189,-12.8 -7.05185,-15 -0.99997,-2.2 -4.14151,-8.95 -6.9812,-15 -2.8397,-6.05 -6.23006,-13.52716 -7.53414,-16.61591 l -2.37106,-5.61591 -0.16171,-131.6828 c -0.0889,-72.42555 0.14069,-131.98521 0.51029,-132.35481 0.3696,-0.3696 5.9668,-0.68518 12.43822,-0.70128 11.20257,-0.0279 11.97008,-0.16411 16.02178,-2.84366 4.81493,-3.1843 9.07792,-10.95151 9.09414,-16.56961 0.0255,-8.84817 -5.70544,-16.83242 -13.66945,-19.0439 -2.61865,-0.72715 -53.30882,-1.06272 -161.11062,-1.06654 -152.64742,-0.005 -157.39934,0.0506 -161,1.8971 C 245.15301,283.5218 242,288.64724 242,296.5 c 0,5.5064 1.39347,9.22384 4.81362,12.84158 4.79393,5.0709 9.59267,6.81447 20.39306,7.4096 8.22741,0.45336 10.04597,0.85238 10.86574,2.38413 0.63578,1.18797 0.8859,48.16129 0.70606,132.60217 L 278.5,582.5 l -12.31649,26 c -13.87424,29.28841 -13.465,28.41489 -23.11218,49.33246 C 239.1821,666.26531 236,673.35964 236,673.59763 c 0,0.23799 -2.925,6.54492 -6.5,14.01541 -3.575,7.47048 -6.5,13.73807 -6.5,13.92798 0,0.43803 -16.82024,37.16774 -22.19161,48.45898 -8.24467,17.33122 -24.01449,51.07446 -28.5082,61 -3.46985,7.66406 -6.01308,13.17729 -14.30019,31 -3.96391,8.525 -8.25089,17.75 -9.52662,20.5 -1.27574,2.75 -9.39026,20.075 -18.03227,38.5 -8.64201,18.425 -18.75381,40.25 -22.47065,48.5 -7.5729,16.80896 -12.788744,27.93549 -23.583862,50.30948 C 80.323969,1008.2297 77,1015.2665 77,1015.4469 c 0,0.1803 -2.192202,4.9911 -4.87156,10.6905 -2.679357,5.6994 -7.007512,15.0876 -9.61812,20.8626 -2.610609,5.775 -7.393407,16.0601 -10.628441,22.8559 C 48.646846,1076.6516 46,1082.4508 46,1082.743 c 0,0.2922 -2.752082,6.2071 -6.115739,13.1441 -13.010878,26.8332 -15.885909,36.0378 -15.881066,50.8445 0.0053,16.2954 2.991888,29.6106 9.592816,42.7684 4.911204,9.7896 5.813032,11.0181 14.309107,19.4927 16.529762,16.488 29.49667,23.0448 54.094882,27.3537 5.12294,0.8974 609.76966,0.4686 622.23709,-0.4413 z"
       id="path37" />
    <path
       style="fill:none;fill-opacity:1;stroke:#000000;stroke-opacity:1"
       d="m 731.5,1235.9637 c 42.65259,-6.0309 73.63636,-41.9158 73.79111,-85.4637 0.0637,-17.9272 -3.37113,-28.3385 -22.59905,-68.5 -3.02819,-6.325 -7.52457,-16 -9.99196,-21.5 -8.70661,-19.4077 -17.16967,-37.6582 -29.21417,-63 -1.82983,-3.85 -5.21692,-11.05 -7.52686,-16 -2.30994,-4.95 -6.62071,-14.09864 -9.57948,-20.3303 C 723.42082,954.93803 721,949.63805 721,949.39197 c 0,-0.24609 -1.57568,-3.6357 -3.50152,-7.53247 -1.92583,-3.89677 -5.57356,-11.87179 -8.10605,-17.72227 -2.5325,-5.85048 -6.09807,-13.56223 -7.92348,-17.13723 -1.82542,-3.575 -4.30401,-8.75 -5.508,-11.5 -1.20398,-2.75 -3.99268,-8.825 -6.1971,-13.5 -2.20442,-4.675 -7.13934,-15.25 -10.96649,-23.5 -7.51727,-16.20463 -10.26581,-22.02867 -19.82101,-42 -3.42089,-7.15 -7.948,-16.919 -10.06024,-21.70888 -2.11225,-4.78989 -6.06181,-13.33989 -8.77681,-19 -4.73413,-9.8695 -8.28442,-17.50472 -13.15504,-28.29112 -1.24177,-2.75 -3.39063,-7.475 -4.77524,-10.5 -1.38461,-3.025 -4.63568,-10.225 -7.22459,-16 -2.58891,-5.775 -7.42356,-16.125 -10.74366,-23 -10.64435,-22.04145 -16.41161,-34.26865 -20.75369,-44 -2.33136,-5.225 -6.5894,-14.45 -9.4623,-20.5 -2.87291,-6.05 -6.03318,-12.8 -7.02283,-15 -3.52647,-7.83935 -7.87049,-17.13186 -12.15437,-26 L 550.5,583.5 V 451 318.5 l 11,-0.2466 c 13.6186,-0.30531 14.61394,-0.53653 19.04057,-4.42317 5.09104,-4.46999 7.45943,-9.658 7.45943,-16.34005 0,-8.42387 -3.32498,-14.05423 -10.5,-17.78018 -3.99561,-2.0749 -4.17283,-2.07737 -161.5,-2.25649 -98.61742,-0.11228 -158.99543,0.18213 -161.5,0.78748 -5.15254,1.24537 -11.04063,7.33931 -12.56645,13.00579 -1.48363,5.50977 0.22823,13.6036 3.76655,17.80866 4.51082,5.36081 9.61,7.24674 21.2999,7.87776 l 10.5,0.5668 v 133 133 l -11.35988,24 c -15.80216,33.38518 -16.16074,34.1497 -24.07664,51.33246 -3.88491,8.43285 -7.06348,15.4933 -7.06348,15.68988 0,0.19659 -2.08631,4.77198 -4.63624,10.16754 -2.54994,5.39557 -6.77283,14.53512 -9.3842,20.31012 -12.69348,28.07138 -15.5339,34.26178 -20.18903,44 -6.26899,13.11432 -18.59375,39.50183 -28.02406,60 -1.39167,3.025 -3.98808,8.65 -5.7698,12.5 -1.78173,3.85 -6.15506,13.3 -9.71853,21 -3.56347,7.7 -8.05288,17.375 -9.97648,21.5 -1.92359,4.125 -4.64408,9.975 -6.04553,13 -1.40145,3.025 -4.78114,10.225 -7.51041,16 -2.72928,5.775 -7.88597,16.8 -11.45933,24.5 -3.57335,7.7 -7.97682,17.15 -9.78548,21 -1.80866,3.85 -4.28538,9.25 -5.50383,12 -3.61049,8.14878 -14.262605,30.9186 -21.987421,47 -3.962945,8.25 -8.340157,17.475 -9.727136,20.5 -1.38698,3.025 -3.984552,8.65 -5.772382,12.5 -1.787831,3.85 -5.37556,11.725 -7.972732,17.5 -2.597172,5.775 -7.097705,15.45 -10.001184,21.5 -2.903479,6.05 -5.563604,11.9223 -5.91139,13.0495 -0.347785,1.1272 -3.704285,8.3272 -7.45889,16 -12.078255,24.6827 -14.69085,33.5309 -14.601141,49.4505 0.145825,25.8778 8.151824,45.96 24.924065,62.5195 16.157245,15.9524 34.307498,24.4094 56.511131,26.3313 13.9726,1.2094 617.71863,0.3545 626.5,-0.8871 z"
       id="path10" />
    <path
       style="fill:#ffffff;fill-opacity:1;stroke:#000000;stroke-opacity:1;stroke-width:7.55905512;stroke-dasharray:none"
       d="m 732.1469,1236.4441 c 16.35485,-2.6091 29.44822,-8.1636 40.78197,-17.3007 26.51866,-21.3788 38.59156,-56.0282 30.71181,-88.1434 -2.50818,-10.2225 -4.32873,-14.5877 -20.85315,-50 -2.18149,-4.675 -4.8755,-10.525 -5.98667,-13 -1.11118,-2.475 -3.37686,-7.425 -5.03486,-11 -1.65799,-3.575 -4.05842,-8.75 -5.3343,-11.5 -1.27588,-2.75 -4.08958,-8.825 -6.25267,-13.5 -7.09358,-15.331 -11.31975,-24.3641 -15.67321,-33.5 -4.03781,-8.4735 -8.06704,-17.07675 -14.5185,-31 -5.83484,-12.59251 -9.93964,-21.36702 -14.87664,-31.80071 C 712.2998,929.7589 710,924.72033 710,924.50247 710,924.09897 699.71912,901.86049 690.88534,883.15572 688.1984,877.46636 686,872.45896 686,872.02816 c 0,-0.4308 -0.63085,-1.30683 -1.40189,-1.94673 -0.77103,-0.63991 -1.69605,-2.33553 -2.0556,-3.76806 -0.69975,-2.78806 -4.95446,-12.28282 -12.01535,-26.81337 -9.9822,-20.54227 -18.44514,-38.45528 -21.49631,-45.5 -1.78661,-4.125 -5.40282,-12 -8.03604,-17.5 -5.28124,-11.0309 -9.93881,-21.0977 -13.64868,-29.5 -3.14255,-7.11741 -5.1814,-11.55033 -10.22408,-22.22944 C 614.85492,719.96937 613,715.80082 613,715.50712 c 0,-0.29371 -3.31661,-7.39046 -7.37025,-15.77057 -4.05364,-8.3801 -8.51556,-17.71155 -9.91538,-20.73655 -1.39983,-3.025 -5.05822,-10.80372 -8.12975,-17.28603 C 584.51308,655.23165 582,649.74148 582,649.51358 c 0,-0.22789 -2.95191,-6.62417 -6.5598,-14.21396 -3.6079,-7.58979 -6.95908,-14.69962 -7.44708,-15.79962 -2.55374,-5.75636 -7.52682,-16.70622 -9.9917,-22 -7.53722,-16.18751 -6.71837,-0.59773 -7.24167,-137.87097 -0.25762,-67.57903 -0.24927,-127.06034 0.0186,-132.18069 l 0.48696,-9.30974 6.72456,0.56377 c 3.69851,0.31007 9.27276,0.24538 12.38722,-0.14374 13.42807,-1.67773 21.59153,-15.10499 17.20775,-28.30331 -1.91917,-5.7781 -4.35181,-8.34552 -10.5848,-11.17129 -4.46845,-2.0258 -5.61491,-2.04023 -163.5,-2.05833 -157.95183,-0.0181 -159.02191,-0.005 -162.32407,2.00838 -7.49568,4.56994 -10.68449,10.81984 -9.96251,19.52598 0.58516,7.05616 4.52069,12.76477 11.09776,16.09763 3.84647,1.94915 7.15115,2.64478 15.05838,3.16974 L 277.5,318.5 v 131.57879 c 0,121.74333 -0.12687,131.83453 -1.6972,135 -0.93347,1.88167 -2.90283,6.12121 -4.37637,9.42121 -2.92319,6.54653 -6.59398,14.40803 -15.57245,33.35055 -3.21969,6.7928 -5.85398,12.50748 -5.85398,12.69929 0,0.19181 -2.18294,4.98406 -4.85097,10.64945 C 242.481,656.86468 237.92402,666.9 235.0224,673.5 c -2.90161,6.6 -5.61511,12.45 -6.02999,13 -0.41488,0.55 -3.23999,6.625 -6.27803,13.5 -7.06109,15.97908 -16.7201,37.12057 -21.92998,48 -10.84002,22.63645 -16.96083,35.72107 -29.00275,62 -1.63819,3.575 -4.45996,9.65 -6.27059,13.5 -1.81063,3.85 -4.74597,10.15 -6.52297,14 -7.97502,17.2784 -18.7779,40.51269 -26.61865,57.25 -1.99681,4.2625 -4.86955,10.45 -6.38388,13.75 -1.51433,3.3 -5.00042,10.725 -7.74686,16.5 -2.74645,5.775 -7.12483,15.225 -9.72973,21 -7.19433,15.94961 -9.271477,20.42849 -15.767999,34 -3.290982,6.875 -7.453297,15.65 -9.24959,19.5 -1.796292,3.85 -6.0167,12.7686 -9.378683,19.8192 C 70.750714,1026.3698 68,1032.3094 68,1032.5185 c 0,0.209 -2.25,5.1507 -5,10.9815 -2.75,5.8308 -5,10.7764 -5,10.9904 0,0.2139 -2.925,6.5013 -6.5,13.9719 -3.575,7.4707 -6.5,13.8152 -6.5,14.0989 0,0.2837 -3.336653,7.4209 -7.414783,15.8604 -11.374053,23.5382 -13.895179,31.5813 -14.391213,45.9121 -1.014033,29.2962 9.124892,53.3499 30.135858,71.4948 3.393576,2.9306 7.745138,6.2215 9.670138,7.3129 1.925,1.0915 5.525,3.1262 8,4.5215 6.470451,3.6479 13.347724,6.0621 23.555472,8.269 8.732068,1.8879 16.299698,1.9346 318.591428,1.969 269.78575,0.031 310.85093,-0.1568 319,-1.4568 z"
       id="path9" />
    <g
       id="g411">
      <g
         id="g410">
        <path
           style="fill:#4063d8;fill-opacity:1;stroke:#4063d8;stroke-width:7.62435;stroke-dasharray:none;stroke-opacity:1"
           d="m 109.75812,1080.5895 c 2.11292,-4.7736 32.24952,-71.1717 66.97025,-147.55109 67.42838,-148.3306 65.0184,-143.67341 77.93718,-150.61021 14.7516,-7.92093 37.50293,-9.6213 58.99151,-4.40883 6.94937,1.6857 24.61634,8.48917 42.32557,16.29938 61.29302,27.03176 82.04009,34.45899 109.29646,39.12692 16.1048,2.7581 18.31044,3.96034 32.18377,17.54252 23.41177,22.92041 34.72527,47.36731 34.75771,75.10663 0.0264,22.56046 -7.91426,41.36084 -24.96008,59.09577 -11.49106,11.95556 -20.87727,18.48421 -47.83485,33.27231 -29.67194,16.2771 -43.90948,27.195 -57.22193,43.8805 l -7.87898,9.8753 -3.00902,-10.5697 c -9.64508,-33.88 -27.89244,-55.3883 -52.72277,-62.14474 -15.00028,-4.08159 -41.41993,-1.78648 -68.26705,5.93034 -34.67428,9.9666 -88.73543,37.1551 -147.64911,74.2554 -8.36604,5.2685 -15.55958,9.579 -15.98565,9.579 -0.42607,0 0.95409,-3.9057 3.06699,-8.6795 z"
           id="path405" />
        <path
           style="fill:#cb3c33;fill-opacity:1;stroke:#cb3c33;stroke-width:7.45745;stroke-dasharray:none;stroke-opacity:1"
           d="m 125.6891,1192.919 c -12.06433,-0.6662 -14.32165,-1.2059 -20.15605,-4.8196 -13.545155,-8.3894 -21.354835,-23.9643 -20.586165,-41.0551 0.41617,-9.2531 1.29575,-11.9414 10.4137,-31.8276 l 9.959135,-21.7209 18.8136,-11.7465 c 90.1211,-56.2685 155.67526,-84.18786 197.69186,-84.19666 24.24136,-0.01 43.33848,11.68106 55.07595,33.70286 4.12581,7.7408 13.55904,34.5613 13.55904,38.5509 0,1.1361 -2.1009,4.5201 -4.66864,7.5199 -8.94971,10.4557 -11.80354,27.6571 -6.8054,41.0193 4.78404,12.7898 13.18979,22.2607 43.01134,48.4617 15.87046,13.9436 28.75225,25.4218 28.62618,25.507 -0.90494,0.6119 -314.24372,1.195 -324.93455,0.6047 z"
           id="path406" />
        <path
           style="fill:#9558b2;fill-opacity:1;stroke:#9558b2;stroke-width:7.90109;stroke-dasharray:none;stroke-opacity:1"
           d="m 515.7895,1094.8037 c -13.14723,-2.5503 -20.6615,-5.0471 -47.72924,-15.8583 -32.05983,-12.8053 -41.04483,-15.1175 -60.28034,-15.5115 -9.19932,-0.1885 -18.0356,0.3457 -20.4721,1.238 -2.35772,0.8632 -4.55526,1.3057 -4.88336,0.9831 -1.20184,-1.1815 16.51068,-17.1128 26.9929,-24.2784 5.93202,-4.0553 21.49845,-12.5697 34.59203,-18.9207 30.85997,-14.9689 43.88371,-22.89079 55.91787,-34.01321 43.38639,-40.09932 40.04129,-100.4483 -8.06754,-145.54624 l -8.4877,-7.95648 16.44022,-0.50963 c 23.43284,-0.7264 41.41687,-5.00379 65.95887,-15.68789 l 20.32547,-8.84845 34.80057,74.82908 c 19.14029,41.15598 37.48644,80.59925 40.76917,87.65169 l 5.96861,12.82264 -18.09955,24.08229 c -9.95478,13.2453 -22.66403,29.3564 -28.24281,35.8024 -26.64274,30.7842 -52.44373,47.5942 -78.15981,50.923 -11.55333,1.4955 -13.99341,1.3883 -27.34326,-1.2014 z"
           id="path407" />
        <path
           style="fill:#389828;fill-opacity:1;stroke:#389828;stroke-width:7.61398;stroke-dasharray:none;stroke-opacity:1"
           d="m 444.80519,1188.4828 c -2.3183,-2.1374 -16.52063,-14.3122 -31.56072,-27.0552 -29.94971,-25.3753 -39.49999,-35.5545 -43.10359,-45.9418 -7.97185,-22.979 7.6253,-44.2955 36.01921,-49.2273 16.3675,-2.843 33.55735,0.7669 69.97733,14.6954 35.16297,13.4476 55.29123,16.9662 74.61546,13.0435 34.5259,-7.0086 60.69103,-30.0002 102.64477,-90.1952 10.99582,-15.77669 13.26469,-18.33865 14.44765,-16.31388 2.23155,3.81951 65.64713,135.11008 69.53067,143.95078 3.06152,6.9694 3.42947,9.4502 2.89423,19.5143 -0.74134,13.9399 -4.5966,22.1931 -14.41694,30.8637 -13.33465,11.7735 -1.4486,10.91 -147.57012,10.72 l -129.26286,-0.1682 z"
           id="path408" />
      </g>
    </g>
    <ellipse
       style="fill:#389828;fill-opacity:1;stroke:none;stroke-width:0.315943;stroke-opacity:1"
       id="path72-2"
       cx="379.11316"
       cy="754.82434"
       rx="16.654089"
       ry="15.792484" />
    <ellipse
       style="fill:#cb3c33;fill-opacity:1;stroke:none;stroke-width:0.315943;stroke-opacity:1"
       id="path72-2-2"
       cx="483.07407"
       cy="662.04279"
       rx="16.654089"
       ry="15.792484" />
    <ellipse
       style="fill:#4063d8;fill-opacity:1;stroke:none;stroke-width:0.614264;stroke-opacity:1"
       id="path72-2-2-1"
       cx="502.23672"
       cy="761.92841"
       rx="31.964331"
       ry="31.102726" />
    <ellipse
       style="fill:#4063d8;fill-opacity:1;stroke:none;stroke-width:0.300356;stroke-opacity:1"
       id="path72-2-2-1-9"
       cx="481.82162"
       cy="436.98288"
       rx="15.445386"
       ry="15.389584" />
    <ellipse
       style="fill:#cb3c33;fill-opacity:1;stroke:none;stroke-width:0.794486;stroke-opacity:1"
       id="path72-2-2-6"
       cx="365.20142"
       cy="410.40469"
       rx="42.036858"
       ry="39.563648" />
    <ellipse
       style="display:inline;fill:#9558b2;fill-opacity:1;stroke:none;stroke-width:1.01053;stroke-opacity:1"
       id="path72-8"
       cx="350.54727"
       cy="649.78815"
       rx="52.5"
       ry="51.25"
       inkscape:transform-center-x="-66.363636"
       inkscape:transform-center-y="-88.92094" />
    <ellipse
       style="display:inline;fill:#9558b2;fill-opacity:1;stroke:none;stroke-width:0.598045;stroke-opacity:1"
       id="path72-8-1"
       cx="477.61807"
       cy="327.99686"
       rx="31.952044"
       ry="29.493341"
       inkscape:transform-center-x="-40.389584"
       inkscape:transform-center-y="-51.1722" />
    <ellipse
       style="fill:#389828;fill-opacity:1;stroke:none;stroke-width:1.18214;stroke-opacity:1"
       id="path72"
       cx="456.71588"
       cy="544.9201"
       rx="62.941517"
       ry="58.5" />
  </g>
</svg>
